<svg xmlns="http://www.w3.org/2000/svg" viewBox="0 0 4000 814.24"><defs><style>.cls-1{fill:#494949;}.cls-2{fill:#ed2831;}</style></defs><g id="W"><path class="cls-1" d="M3651,654.13c0,13.14.13,26.29-.06,39.43-.08,5.41.34,12.32-7.72,11.86-7.48-.42-6-7.16-6-12-.15-19.44-.12-38.87,0-58.3,0-4.23-1-9.36,4.68-11.07,5.45-1.63,9.2,1.63,12.1,5.62,10.12,13.94,20.06,28,30.11,42,1.23,1.71,2.11,3.92,5.6,4.24,2-5.44.86-11.26,1-16.9.28-9.52.11-19.06.54-28.57.19-4.1,2.69-6.86,7.2-6.64,4,.2,5.94,2.86,6,6.57q.15,34.1,0,68.19c0,3.12-1.09,5.88-4.45,6.8-4.9,1.34-8.78-.79-11.54-4.52-8.5-11.5-16.75-23.17-25.12-34.76-3.15-4.36-6.34-8.69-9.51-13Z"/><path class="cls-1" d="M3537.39,622c22.68.07,40.91,19.18,41.1,43.07.19,23.1-19.24,42.72-41.81,42.24-23.73-.51-40.82-18.6-40.59-42.94S3513.9,622,3537.39,622Zm-.58,13.69c-15.57.26-26.88,13.34-26.41,30.57.42,15.6,12.51,27.73,27.29,27.39,14-.32,26.33-13.77,26.35-28.87C3564.06,649.15,3551.26,635.48,3536.81,635.71Z"/><path class="cls-1" d="M3014.58,664.71c.06,24.28-17.38,42.42-41,42.64-22.67.22-41.49-19.13-41.43-42.61s18.73-42.87,41.37-42.71C2996.94,622.2,3014.53,640.48,3014.58,664.71Zm-14.49.47c.16-16.69-10.81-29.07-26.1-29.47-14.57-.38-27.13,12.64-27.5,28.5-.37,15.56,11.87,29.15,26.54,29.46C2988.19,694,2999.94,681.63,3000.09,665.18Z"/><rect class="cls-2" x="2560.9" y="763.38" width="1264.67" height="1.53"/><path class="cls-1" d="M3794.14,707.44c-8.73-.69-17-2.15-24.28-7-3.65-2.42-8-5.06-4.59-10.5,3-4.75,6.93-4.43,11.36-1.7,7.42,4.56,15.41,7.06,24.13,4.49,5.09-1.51,10-4,10-10.19.08-5.7-4.4-8.2-9.08-9.71-4.87-1.58-9.93-2.59-14.9-3.87-16-4.1-22.49-11.43-21.79-24.45.62-11.74,10-20.46,24.85-22.08A40.48,40.48,0,0,1,3819,630.1c3.18,2.35,5.27,5.29,2.45,9.34-2.54,3.66-5.86,4.24-9.57,2-6.81-4-14-6.81-22-5.42-4.81.83-9.48,2.9-10.19,8.58-.76,6.09,3.8,8.29,8.55,9.7,5.61,1.67,11.44,2.65,17,4.43,13.5,4.31,20.81,13.25,20.23,24.2-.64,11.84-9.87,20.82-24,23.3C3799,706.72,3796.47,707.08,3794.14,707.44Z"/><path class="cls-1" d="M2845.88,707.45c-8.49-.88-16.43-2.24-23.37-6.82-3.84-2.53-7.43-5.54-4.52-10.75s6.94-4,11.22-1.45c7.47,4.45,15.43,7,24.14,4.22,5.08-1.63,9.76-4.17,9.74-10.42,0-5.79-4.41-8.12-9.18-9.51-6.68-1.94-13.58-3.18-20.14-5.44-10.23-3.52-17-10.19-16.48-21.91.49-11.55,7.74-17.85,17.83-21.21,12.24-4.09,23.91-1.93,34.72,4.88,3.47,2.18,7.1,4.87,4.4,9.72s-6.66,4.76-11.16,1.94c-6.39-4-13.43-6.1-21-4.62-4.81.95-9.41,3-10.1,8.69-.75,6.13,4,8.19,8.66,9.6,5.95,1.8,12.16,2.77,18,4.73,13.64,4.54,20.17,13.26,19.1,24.75-1,11.2-9.64,19.74-22.52,22.23C2852.05,706.71,2848.76,707,2845.88,707.45Z"/><path class="cls-1" d="M3178.62,654.32c0-5.88-.26-11.77.08-17.63.3-5.06-2-12.64,6.36-12.69,8.75,0,7.19,7.75,7.35,13.31.33,11.37.05,22.77.35,34.15.22,8.15,3.21,15.07,10.65,19.33,14.31,8.19,30.51-1.11,32.19-19.14,1-10.57-.11-21.32.57-31.93.37-5.77-3.78-15.46,6.63-15.56,10-.1,7,9.39,7.23,15.38.42,10.63.5,21.32-.06,32-1.16,21.82-16.24,36.25-36.82,35.85s-34.3-15.16-34.52-37.59C3178.58,664.61,3178.62,659.46,3178.62,654.32Z"/><path class="cls-1" d="M2655.13,671c0-7.7-.27-15.42.07-23.1.33-7.44-2.52-11.06-10.21-10.43a63.86,63.86,0,0,1-7.7-.08c-4.82-.22-8.9-1.46-8.57-7.51.29-5.37,4.11-6.44,8.47-6.45q25.3-.07,50.61,0c5,0,8.92,1.68,8.69,7.46-.21,5.26-4.25,6.06-8.55,6.53-18.64,2.06-18.63,2.1-18.64,20.57q0,19.24-.06,38.51c0,4.77-.92,9.17-6.94,9.06s-7-4.56-7-9.25c-.13-8.43,0-16.87,0-25.3Z"/><path class="cls-1" d="M3336.48,623.44c8.8,0,17.61-.09,26.42,0,4.61.07,7.93,2.14,7.77,7.25-.15,4.55-3.45,5.86-7.43,6.57-6.31,1.14-14.62-3.06-18.63,3.1s-1.28,14.33-1.44,21.62c-.24,11.37-.05,22.75-.13,34.13,0,4.57-.35,9.35-6.56,9.4-6,0-7-4.61-7.07-9.19-.2-15.41-.56-30.84,0-46.24.33-9.48-2.89-13.89-12.62-12.7a29.78,29.78,0,0,1-5.5-.1c-4.8-.31-8.93-1.62-8.67-7.57.25-5.41,4.28-6.31,8.57-6.35,8.44-.1,16.88,0,25.33,0Z"/><path class="cls-1" d="M3072.93,664.44c0-10.24,0-20.49,0-30.73,0-5,.52-10.11,7.29-9.82,5.85.25,6.66,4.92,6.7,9.53.12,15.73.44,31.47,0,47.19-.25,8.63,3,11.9,11.54,11.42,8-.45,16.09-.13,24.13.14,4.33.14,8.21,1.73,8.18,6.92s-3.84,6.77-8.22,6.82c-13.54.14-27.08.08-40.61.1-6.52,0-9.07-3.55-9-9.73C3073,685.67,3072.94,675.05,3072.93,664.44Z"/><path class="cls-1" d="M3437.76,664.63c0,10.6,0,21.2,0,31.8,0,4.71-.95,9.17-6.94,9.09-5.65-.08-7.3-4.18-7.31-9q-.1-31.8,0-63.6c0-4.78,1.49-9,7.23-9.07,6-.1,7,4.21,7,9C3437.79,643.43,3437.76,654,3437.76,664.63Z"/><path class="cls-1" d="M2574.52,665.4c0,10.62,0,21.23,0,31.85,0,4.34-1.06,8.28-6.49,8.31-5.25,0-7-3.82-7-8.11q-.23-32.93,0-65.86c0-4.41,2.11-8,7.28-7.76,5.41.26,6.17,4.36,6.19,8.63C2574.57,643.44,2574.53,654.42,2574.52,665.4Z"/><path class="cls-2" d="M3020.4,443c0-24.17-.14-48.33.07-72.5.13-14.57,7.32-23.89,21.42-24.27,29.66-.81,59.39-2.31,89,1,4.48.51,8.84,2.19,13.19,3.55,5.75,1.79,12.62,9.73,15.38-3.28.2-.93,3.44-1.75,5.25-1.72,20.54.33,41.18-2,61.61,1.28,31.69,5,51.08,27.54,51.26,59.44.21,35.92-.18,71.85.21,107.76.1,9-2.89,12.55-11.84,11.94a180.16,180.16,0,0,0-21.55,0c-7.95.4-10.93-2.72-10.85-10.85.32-33,.15-66,.09-98.95a86.29,86.29,0,0,0-.65-11.71c-1.23-9.11-6.3-13.92-15.83-13.77-9.8.16-19.59.11-29.39,0-5.94-.06-7.41,2.41-7.32,8.45.57,39.17.55,78.35.83,117.53,0,6.74-3.26,9.34-9.67,9.22-7.83-.14-15.7-.38-23.51.09-9,.55-12-3.36-11.9-12.12.31-33.31.13-66.62.11-99.93,0-20.7-2.53-23.22-23-23.26-12.41,0-24.84.41-37.23-.13-8.81-.39-12,2.48-11.91,11.68.45,36.9-.1,73.81.38,110.7.12,9.68-2.61,13.21-12.66,13.18-31.49-.1-31.49.25-31.49-31.42Z"/><path class="cls-1" d="M2887,346.23c15,0,30.16-1.36,45,.28,33.06,3.68,53.16,26.92,53.61,60.23.25,18.93.09,37.86,0,56.79-.08,34.68-19.57,58-54.27,61.29a465.12,465.12,0,0,1-92.82-.21c-31.21-3.26-51.53-27.27-51.65-58.64-.05-12.73.22-25.46-.09-38.18-.16-6.84,1.85-10.28,9.37-10.11a168.44,168.44,0,0,0,22.43-1.3c9-1,13.27,1.72,12.66,11.66-.73,11.7-.29,23.49-.12,35.23.17,12.27,4.81,17.41,17.18,17.58q38.18.51,76.37,0c11.31-.15,16.26-4.78,16.61-16.19.6-19.23.67-38.5.09-57.74-.33-11.3-5.58-15.81-16.82-15.89-25.45-.21-50.91,0-76.37-.1-10.09,0-16.25,4.35-17,14.7-.38,5.16-3.27,6.71-7.71,6.73-9.46.06-18.93,0-28.39.07-6.43.06-8.15-3.34-8.26-9.29-.47-23.75,17-46.83,40.82-54C2847.21,343.29,2867.21,346.59,2887,346.23Z"/><path class="cls-2" d="M1345.05,345.62c13.21.76,29.88-1.43,46.45,1.53,30.67,5.47,51.57,31.36,49,61.06-2.92,34.2-25.38,56.75-57.82,57.34-22.85.41-45.71-.21-68.56.23-8.84.16-11-3.5-11-11.69-.1-30.45-.33-30.44,30.2-30.45,14.69,0,29.39.15,44.08-.07,13.07-.2,20.11-6.44,20.37-17.49.26-10.82-6.71-18-19.76-18.25-24.15-.49-48.32-.53-72.47.06-13.6.33-19.1,6.77-19.27,20.68q-.35,27.42,0,54.85c.18,14.14,5.39,19.33,19.82,19.53,21.22.28,42.45.36,63.67,0,8.49-.14,11.83,3,11.23,11.48-.55,7.8-.25,15.67-.12,23.5.09,5.25-2.18,8-7.47,8-24.48-.09-49.08,1.28-73.4-.7-34.55-2.83-53.31-22-56.14-56.46-1.88-23-2.24-46.36.48-69.42,3.92-33.1,25.71-52.62,59.12-53.69C1316.18,345.28,1328.92,345.62,1345.05,345.62Z"/><path class="cls-2" d="M3400.28,441.75c0-24.16-.11-48.33,0-72.49.09-13.79,7.49-23,21.19-23.19,36.53-.42,73.19-3,109.57,1.26,39.31,4.57,66.62,34.67,67.74,74,.9,31.64.08,63.34.31,95,0,7.26-3,10-9.94,9.78-8.15-.25-16.33-.24-24.48,0-7.09.2-9.78-2.81-9.71-10,.26-27.1.05-54.2.12-81.3,0-7.57-.59-15.1-3.23-22.16-4.93-13.18-14.73-21.07-28.76-21.47-23.49-.68-47-.15-70.51-.38-7.57-.07-8.18,4.4-8.17,10.25q.15,55.83,0,111.66c0,13-.3,13.23-13,13.32-7.18,0-14.37-.19-21.55,0s-9.81-2.74-9.73-9.92C3400.45,491.38,3400.28,466.56,3400.28,441.75Z"/><path class="cls-1" d="M2216.5,526.1c-16.59-.84-37.18,1.53-57.66-1.24-32.16-4.36-52.11-26.87-52-59.21.08-26.64-3.8-23.72,24-24.22,21.36-.39,19.78-2.33,20,18.95.14,16,4.45,20.52,20.35,20.62,33.6.21,67.21.31,100.82-.05,9.11-.1,13.33,2.54,12.45,12.23a129.82,129.82,0,0,0,0,21.51c.64,8.46-2.57,11.73-11.14,11.53C2255.67,525.81,2238.05,526.1,2216.5,526.1Z"/><path class="cls-1" d="M2215.43,345.57c22,0,40,.34,57.94-.14,8.79-.24,11.61,3.3,11,11.6a161.2,161.2,0,0,0,0,22.52c.64,8.58-2.78,11.52-11.24,11.45-32.33-.3-64.67.08-97-.21-12.86-.12-24.86-.27-25.85,17.2-.2,3.57-3.72,4.27-6.77,4.29-9.79.1-19.59,0-29.38,0-7,0-7.45-4.62-7.4-10,.28-26.89,20.3-50.35,48.16-55.17C2176.32,343.42,2198,346.57,2215.43,345.57Z"/><path class="cls-2" d="M3801.69,270.87c-14.65-.07-14.69,0-14.7,14.57q0,88.11,0,176.23c0,15.44-3.62,19.21-19,19.35q-35.23.33-70.49,0c-15.61-.13-19.84-4.44-20-19.81-.12-16.32-.07-32.64,0-49,.05-18.43,3-21.35,21.86-21.39,20.89-.05,41.78-.13,62.66,0,6.52.05,9.85-2.14,9.89-8.61h0l-.07-27.52q0-.88,0-1.68V353h0c-.33-5.52-3.44-7.48-9.37-7.44-23.17.18-46.37-.62-69.5.28-39.88,1.55-62,32.23-59.74,62.49,1.49,19.79.14,39.79.33,59.7.28,29.5,21.24,53.3,50.5,56.78,25.67,3,51.5,1,77.26,1.21,30.13.22,48-7.29,60.18-26.95A72.38,72.38,0,0,0,3832,460.88V271.37C3821.91,271.19,3811.8,270.91,3801.69,270.87Z"/><path class="cls-1" d="M2632.93,345.61c15.63.77,35.64-2,55.34,1.74,30.94,5.87,53.05,22.51,62.55,53.54,3,9.76,1.71,11.25-8.79,11.52-4.24.11-8.49-.17-12.72.07-11.94.7-22.84.68-30.33-11.89-4.2-7-13-9.52-21.59-9.56-22.84-.11-45.68.09-68.51-.22-7.7-.1-9.8,3.69-9,10.31,1,8.53-2.66,11.88-11.14,11.41-8.13-.46-16.3-.21-24.46-.12-6.05.06-8.89-2.49-8.75-8.83.26-11.09,0-22.18.08-33.27.15-15.4,8.49-24.2,24.17-24.61C2596.07,345.28,2612.39,345.61,2632.93,345.61Z"/><path class="cls-1" d="M2710.36,472.81c0-14.34.4-28.69-.16-43-.29-7.46,2.61-9.91,9.54-9.79,8.79.14,17.59,0,26.39-.29,5.82-.16,8.24,2.57,8.23,8.23q-.08,45,0,89.93c0,5.86-2.82,8.22-8.38,8.18-8.8,0-17.6-.12-26.4,0-6.5.12-9.41-2.52-9.28-9.31.29-14.66.09-29.32.09-44Z"/><path class="cls-1" d="M2599.82,475.72c0,13.39-.31,26.79.13,40.16.26,7.79-3,10.55-10.38,10.28-8.15-.3-16.32-.19-24.48,0-6.28.1-9.65-2-9.59-9,.23-27.43.19-54.86,0-82.29,0-6.25,2.57-8.89,8.68-9,9.46-.13,18.93-.36,28.37-.92,5.92-.36,7.28,2.71,7.26,7.73C2599.76,447,2599.81,461.35,2599.82,475.72Z"/><path class="cls-1" d="M2426.9,345.59c12.11.67,27.18-1.42,42.07,1.64,28,5.75,46.41,26,48.53,52.86.66,8.5-1.53,13.05-11,12.44-8.13-.51-16.31-.16-24.47-.13-5.26,0-8.38-1.6-8.93-7.7-.89-9.81-7.11-13.9-16.78-13.83-20.56.15-41.12,0-61.69,0-15.4,0-15.4,0-15.42-15.86,0-6.53.29-13.07-.06-19.58-.38-7.12,2.5-10.1,9.68-9.93C2400.54,345.79,2412.3,345.59,2426.9,345.59Z"/><path class="cls-1" d="M2362.76,341.47c0,20.2-.24,40.41.12,60.61.14,7.63-2.74,10.67-10.24,10.41-8.46-.3-16.95-.17-25.42-.08-6,.06-8.8-2.4-8.77-8.77q.23-62.07,0-124.16c0-6.22,2.41-8.87,8.67-8.69,8.47.25,17,.37,25.41-.05,7.53-.38,10.47,2.4,10.34,10.12C2362.52,301.05,2362.76,321.26,2362.76,341.47Z"/><path class="cls-1" d="M2517.5,476.56c0,13.36-.2,26.73.1,40.08.15,6.67-2.46,9.59-9.11,9.46-8.79-.17-17.6-.11-26.39,0-6,.06-8.87-2.31-8.83-8.72.19-26.4.15-52.8,0-79.19,0-5.39,1.55-8.35,7.48-9.09,10.08-1.25,20.16-1,30.25-1.25,6.17-.14,6.46,4.15,6.47,8.64Z"/><path class="cls-1" d="M2362.75,479.7c0,12.05-.32,24.12.12,36.16.29,7.75-2.95,10.55-10.34,10.29-8.79-.3-17.6-.11-26.39-.16-5.16,0-7.66-2.42-7.64-7.81q.15-38.11,0-76.24c0-5.42,2.58-7.68,7.68-7.79,9.13-.2,18.25-.25,27.36-.7,6.65-.32,9.44,2.32,9.28,9.1C2362.53,454.93,2362.74,467.32,2362.75,479.7Z"/><path class="cls-1" d="M1987.61,345.64c13.11.72,30.46-1.63,47.64,1.68,27.77,5.35,47.78,29.09,47.33,55.66-.11,6.68-2.54,9.63-9.17,9.45-5.55-.15-11.11-.16-16.65.05-9.17.35-17.88,1-17.49-12.66.14-4.94-4.68-8.5-9.69-10a43.45,43.45,0,0,0-11.5-2.09c-22.53-.2-45.07-.33-67.6,0-14.22.19-19.2,4.2-22.52,18.09-1.18,4.93-3.7,6.48-8.07,6.52-8.16.07-16.33-.16-24.48.14-7.9.3-10.27-3.4-9.61-10.83,2.85-32.51,25.62-54.63,58.48-55.93C1957.32,345.2,1970.4,345.64,1987.61,345.64Z"/><path class="cls-1" d="M1977.18,526.11c-12.34-.47-27.07,1.15-41.64-1.44-34.68-6.17-52.57-32.83-49.78-68.35.36-4.49,2.92-6.33,7-6.57,4.88-.28,9.78-.36,14.67-.49,17.95-.47,17.95-.46,20.53,17.44,1.48,10.27,7.48,15.93,18.69,16.13,20.22.38,40.45.19,60.68.22,16.34,0,16.34,0,16.36,15.86,0,5.22-.47,10.49.1,15.65,1,9.38-3.44,12-12,11.65C2001,525.78,1990.26,526.11,1977.18,526.11Z"/><path class="cls-1" d="M1990.1,465.64c-12.08,0-24.16-.15-36.23.06-6.54.12-9.49-2.42-9.47-9.2.1-27.59-1.63-22.83,21.89-23,30.68-.25,61.36-.12,92,0,9.63,0,9.55.74,5.75,9.26-7.6,17-21.62,22.53-38.73,22.89C2013.6,465.84,2001.85,465.64,1990.1,465.64Z"/><path class="cls-1" d="M1825.7,390.9c-9.13,0-18.27.25-27.39-.08-7-.25-10.69,2.29-9.73,9.61,1.29,9.73-3.38,12.74-12.43,12.11a203.24,203.24,0,0,0-21.52-.06c-7.22.27-11.46-2.19-10.39-10.1,1.25-9.23-3-12-11.76-11.62-11.39.54-22.83-.09-34.24.18-7.25.18-11-2.18-10.61-10.09.42-8.46.32-17,0-25.43-.24-7.06,2.59-10.07,9.76-9.92,12.72.28,25.45-.12,38.16.11,6.24.11,8.82-2.3,8.69-8.64-.25-12.72.21-25.45-.14-38.16-.21-7.33,2.06-10.93,10-10.5,8.45.45,17,.35,25.43,0,6.87-.26,9.19,2.83,9.07,9.37-.25,12.72.22,25.45-.15,38.16-.21,7.15,2.33,9.91,9.6,9.78,17.93-.33,35.88.22,53.81-.23,8.53-.21,11.85,2.86,11.27,11.39a175.07,175.07,0,0,0,0,23.47c.57,8.39-3.3,10.95-11,10.66-8.79-.33-17.61-.08-26.42-.08Z"/><path class="cls-1" d="M1788.52,490.27c0,9.13-.17,18.27,0,27.41.14,5.84-2.57,8.37-8.18,8.36-9.14,0-18.27-.06-27.41,0-6,.07-8.89-2.39-8.81-8.77.22-17.95.11-35.9.07-53.85,0-4.79,1.1-8.21,6.94-8.37,9.12-.25,18.25-.7,27.34-1.48,7.81-.67,10.47,2.73,10.12,10.24C1788.22,472.63,1788.54,481.45,1788.52,490.27Z"/><path class="cls-2" d="M1665.93,407.34c-2.32-37.69-21.24-58.28-57.16-61-24.67-1.89-49.58-.53-74.38-.63-5.29,0-7.69,2.53-7.61,7.83.11,8.16.54,16.37-.16,24.47-.86,9.8,2.66,13.36,12.65,13.07,20.54-.59,41.12-.23,61.69-.14,15.49.06,20,4.46,20.1,19.66q.17,25.45,0,50.92c-.1,14.5-4.81,19.39-19.45,19.54q-34.75.35-69.53,0c-15.88-.14-20.43-4.81-20.48-20.6-.09-32.64,0-65.28,0-97.93,0-26.76-.2-53.53.1-80.3.08-7.16-1.79-11.08-8.11-11.51h0c-.67,0-1.42,0-2.2,0l-23.41,0a22.52,22.52,0,0,0-2.6,0h-.15c-6.47.45-8.86,4.19-8.75,12.23.44,30.35.17,60.71.16,91.07v87.16c0,.65,0,1.31,0,2,.49,34.75,19.92,58.08,54.31,61.75,29.84,3.19,60.06,2.76,89.93.25,32.57-2.73,50.83-22.59,54.42-55.17C1667.54,449.09,1667.21,428.12,1665.93,407.34Z"/><path class="cls-2" d="M3360.22,436.58c0,25.8-.37,51.61.19,77.4.21,9.64-3.33,12.87-12.51,12.22-7.47-.53-15-.26-22.52-.11-6.46.14-9.41-2.35-9.39-9.22q.24-80.83,0-161.68c0-7.34,3-9.9,9.94-9.65a222.76,222.76,0,0,0,22.53-.05c8.78-.59,12.12,2.56,12,11.72C3359.9,383.66,3360.22,410.12,3360.22,436.58Z"/><path class="cls-2" d="M3338.36,270.84c24.35.31,21.81-2.85,21.81,19.85,0,23.13,2.59,20.39-21.27,20.32-26.24-.07-22.55,3.51-22.81-22.71-.17-17.45,0-17.45,17.39-17.46Z"/><path class="cls-2" d="M1203.93,283.3c-6.86,0-13.77.55-20.55-.14-9.3-.94-12.42,3.43-13.89,11.93-7.64,44-15.72,88-23.69,131.94-.43,2.4,0,5.31-3.4,6.89-1.65-2.33-3.42-4.59-4.94-7q-26.71-42.76-53.37-85.56c-3.11-5-6-10.08-10.41-14.16-9.21-8.61-21.89-8.38-30.52.84a62.76,62.76,0,0,0-7,9.4c-18.25,29-36.36,58.1-54.68,87.06-1.94,3.07-3,8.72-7.32,7.83-3.3-.69-2.71-6.15-3.32-9.52-2.47-13.62-4.81-27.26-7.27-40.88-2.28-12.63-3.5-26.81-7.06-39.93h0c-9.09-51.26-79-61.13-79-61.13,12.07,5.47,19.67,16.71,19.65,16.71,6.13,7.71,9.72,17.4,11.6,28.74,9.34,56.3,19.62,112.46,29.6,168.66,1.14,6.42,2.63,12.8,6.2,18.45,7.73,12.21,21,14.07,31.65,4.37,4.4-4,7.46-9,10.53-14q33.12-54.35,66.28-108.67c5.86-9.6,5.93-9.58,11.52-.36q25.14,41.43,50.28,82.88c7.3,12,14.29,24.22,22.53,35.53,9,12.28,23.6,13.79,33.13,4.51,4.89-4.77,6.75-11,7.91-17.55q11.69-65.51,23.44-131,6.46-36.12,12.93-72.24C1217.06,283.73,1216.78,283.35,1203.93,283.3Z"/><rect class="cls-2" x="314.06" y="49.03" width="53.42" height="51.62" rx="6.49" transform="translate(50.17 267.91) rotate(-45.99)"/><rect class="cls-2" x="385.35" y="26.48" width="28.76" height="27.79" rx="3.49" transform="translate(92.94 299.79) rotate(-45.99)"/><path class="cls-2" d="M299.47,212l-14.18,14.68-16.08,16.64a7,7,0,0,1-9.87.16l-29.92-28.9a7,7,0,0,1-.16-9.87l30.25-31.31a7,7,0,0,1,9.87-.18l18.81,18.18,9.92,9.58,1.19,1.15A7,7,0,0,1,299.47,212Z"/><rect class="cls-2" x="158.07" y="183.31" width="45.02" height="43.49" rx="5.46" transform="translate(-92.37 192.44) rotate(-45.99)"/><rect class="cls-1" x="154.94" y="135.13" width="28.72" height="27.75" rx="3.49" transform="translate(-55.49 167.22) rotate(-45.99)"/><rect class="cls-1" x="205.67" y="248.47" width="18.89" height="18.25" rx="2.29" transform="translate(-119.61 233.31) rotate(-45.99)"/><rect class="cls-1" x="190.16" y="298.76" width="45.02" height="43.49" rx="5.46" transform="translate(-165.6 250.75) rotate(-45.99)"/><path class="cls-1" d="M307.22,108.75,277,79.52a7.06,7.06,0,0,0-10,.17l-6.39,6.62L271.35,96.7a12.18,12.18,0,0,1,.29,17.21h0L251,135.29l15.82,15.28a7.06,7.06,0,0,0,10-.17l30.6-31.67A7.06,7.06,0,0,0,307.22,108.75Z"/><rect class="cls-2" x="203.39" y="78.58" width="58.15" height="56.18" rx="7.06" transform="translate(-5.78 199.73) rotate(-45.99)"/><path class="cls-2" d="M895.36,317.07h0v0Z"/><path class="cls-2" d="M895.35,317.07V317l-1.46-14q-.35-2.7-.73-5.39l-3.33,3.56L883.48,308,804,393.09l-.07.08h0c-19.46,21.09-39.61,42.28-61.66,64.13-8.54,8.47-17.23,14.59-28.72,16.77-9.87,1.88-19.86,3.56-30,2.64-20.47-1.85-41.55-3.89-57.13-18.74-33.79-32.22-66.64-65.44-99.72-98.41-.42-.41-.82-.83-1.19-1.25-8.18-9.07-6.16-17.92,5.77-23.19,16.44-7.26,33.67-9.39,51.31-4.7a32,32,0,0,1,15.79,9.14c17.31,18.88,34.82,37.58,51.91,56.66,4.89,5.44,7.69,6.92,13.32.26,30.23-35.69,61-70.87,91.45-106.4h0l0,0h0c.13-.16.86-1.09,2.18-2.53.27-.33.55-.65.82-1a48.17,48.17,0,0,1,11.11-9.71c18.51-13.74,54.86-30,107.26-4.66q4.65,2.25,9.46,4.93c1.35.76,2.72,1.54,4.09,2.36q-1.12-5.55-2.44-11A323,323,0,0,0,787.2,101.77l-1.35-1.19-.53-.46-.15-.13q2.6,4,5,8.41c1.94,3.58,3.75,7.31,5.44,11.15C803.1,136.66,808.22,156.09,811,175c-26.49-56.62-68.11-90.3-68.11-90.3h0a234.42,234.42,0,0,0-49.49-35.34c-3.2-1.72-6.4-3.33-9.59-4.86C649.5,28.12,616.34,22.31,593.35,22h0q-11.61-1.11-23.19-1.22a279.56,279.56,0,0,0-72.81,8.93q-42.75,11-85.1,35.46c-7.06,4.08-14.75,7.73-18.12,15.46a21.42,21.42,0,0,0-1.63,6.53,4.73,4.73,0,0,1-.35,1.39c-.92,2.26-3.35,4.46-5.2,6.35-9.52,9.74-19.22,19.31-28.84,28.95-3.25,3.24-6.88,7.12-11.51,6.21h-.07a13.65,13.65,0,0,0-8.48.59,312.25,312.25,0,0,0-33.58,45.91c-1.23,3.17-.5,5.15,2.45,8.42l.43.48c.68.73,1.48,1.54,2.37,2.44,1.72,1.72,3.82,3.77,6.34,6.34s5.09,5,7.56,7.59c7.7,8.07,8.53,14.39,2.12,22.17-.61.74-1.28,1.49-2,2.26-9.89,10.28-20.21,20.15-30.18,30.36-4.95,5.06-10.56,7.8-17.47,5.41l-.23-.07a6.37,6.37,0,0,0-3.57-.33c-1.72.43-2.61,2-3.1,4.4q-2.58,12.43-4.31,24.73c-6.85,49.06-3,96.56,15.65,144.35.87,2.24,1.77,4.48,2.68,6.7a0,0,0,0,1,0,0c35.71,103.41,124.09,182.27,233.08,204.5-54-5.87-104-23.64-149-54.91a314.26,314.26,0,0,0,84.64,52.38q-14-5.69-27.41-12.63,4.88,2.63,9.86,5.08a309.86,309.86,0,0,0,122.35,31.56c3.46,0,7,0,10.52,0,1.8,0,3.6.05,5.41.05a315.68,315.68,0,0,0,52.79-4.42c2.45-.35,4.9-.75,7.35-1.18q15-3,29.37-7.33l.13,0c135.21-38.69,234.17-163.21,234.17-310.84Q896.47,330.43,895.35,317.07ZM545.82,456.61c-2.9,4.17-7.94,7.81-15.13,10.77-25.32,10.47-51.45,12.19-78.08,5.61a44.33,44.33,0,0,1-22.86-13.92q-64.44-72.09-129.07-144a42.9,42.9,0,0,1-5.44-7.38c-6.84-11.95-2.58-22.23,12.89-29.28,16.13-7.34,33.3-10.42,50.92-10.58,24.44-.65,44,7.5,60.57,26.69,39,45.08,79.45,88.86,119.47,133C549.11,438.62,551.39,448.61,545.82,456.61Z"/></g></svg>