<svg xmlns="http://www.w3.org/2000/svg" viewBox="0 0 4000 814.24"><defs><style>.cls-1{fill:#fff;}.cls-2{fill:#ed2831;}.cls-3{fill:#494949;}</style></defs><g id="W"><path class="cls-1" d="M3711.14,683.32c0,13.9.13,27.8-.07,41.69-.08,5.72.37,13-8.15,12.54-7.91-.45-6.31-7.57-6.35-12.7q-.24-30.81,0-61.63c0-4.47-1.07-9.9,5-11.7,5.76-1.72,9.73,1.72,12.79,5.94,10.7,14.74,21.21,29.61,31.84,44.41,1.29,1.8,2.22,4.14,5.91,4.49,2.1-5.76.91-11.91,1.09-17.87.3-10.07.12-20.15.57-30.21.2-4.33,2.85-7.25,7.61-7,4.24.21,6.28,3,6.3,6.94q.15,36,0,72.09c0,3.29-1.14,6.21-4.7,7.18-5.18,1.42-9.28-.84-12.19-4.78-9-12.15-17.72-24.49-26.56-36.74-3.33-4.61-6.71-9.18-10.06-13.77Z"/><path class="cls-1" d="M3591.08,649.39c24,.07,43.25,20.26,43.45,45.52.2,24.42-20.34,45.17-44.2,44.66-25.08-.54-43.16-19.66-42.91-45.39S3566.25,649.31,3591.08,649.39Zm-.61,14.47c-16.46.27-28.42,14.1-27.92,32.31.45,16.49,13.22,29.31,28.85,29,14.85-.34,27.83-14.56,27.85-30.52C3619.28,678.06,3605.75,663.61,3590.47,663.86Z"/><path class="cls-1" d="M3038.4,694.51c.06,25.67-18.37,44.84-43.33,45.08-24,.23-43.86-20.23-43.8-45.05s19.8-45.31,43.74-45.14C3019.75,649.57,3038.34,668.9,3038.4,694.51Zm-15.31.5c.16-17.65-11.43-30.73-27.6-31.15-15.4-.4-28.68,13.36-29.08,30.12-.38,16.46,12.56,30.82,28.07,31.15C3010.5,725.47,3022.93,712.4,3023.09,695Z"/><rect class="cls-2" x="2558.8" y="798.82" width="1336.93" height="1.62"/><path class="cls-1" d="M3862.5,739.68c-9.22-.73-18-2.27-25.67-7.35-3.85-2.56-8.44-5.36-4.85-11.11,3.14-5,7.33-4.68,12-1.8,7.85,4.83,16.29,7.47,25.51,4.75,5.38-1.59,10.52-4.23,10.62-10.77.08-6-4.66-8.66-9.61-10.26-5.15-1.67-10.49-2.74-15.74-4.09-16.88-4.34-23.78-12.09-23-25.85.66-12.41,10.57-21.63,26.27-23.34a42.77,42.77,0,0,1,30.79,8.06c3.37,2.48,5.57,5.6,2.59,9.88-2.68,3.86-6.19,4.48-10.11,2.17-7.2-4.23-14.77-7.21-23.22-5.74-5.09.89-10,3.07-10.77,9.07-.81,6.44,4,8.77,9,10.26,5.94,1.77,12.1,2.8,18,4.69,14.27,4.55,22,14,21.38,25.58-.67,12.52-10.43,22-25.36,24.63C3867.66,738.93,3865,739.3,3862.5,739.68Z"/><path class="cls-1" d="M2860.06,739.69c-9-.93-17.36-2.37-24.71-7.21-4.06-2.67-7.85-5.86-4.77-11.36s7.34-4.23,11.86-1.53c7.89,4.7,16.31,7.39,25.52,4.45,5.37-1.71,10.32-4.41,10.29-11,0-6.11-4.66-8.58-9.7-10-7.06-2.05-14.36-3.36-21.29-5.75-10.82-3.72-18-10.78-17.42-23.16.52-12.21,8.18-18.88,18.84-22.43,13-4.31,25.29-2,36.71,5.16,3.66,2.31,7.5,5.15,4.65,10.28s-7,5-11.8,2c-6.75-4.24-14.19-6.45-22.18-4.88-5.09,1-10,3.22-10.68,9.18-.8,6.48,4.22,8.66,9.15,10.15,6.29,1.9,12.86,2.93,19.09,5,14.41,4.81,21.32,14,20.18,26.16-1.1,11.84-10.19,20.87-23.8,23.5C2866.58,738.91,2863.11,739.25,2860.06,739.69Z"/><path class="cls-1" d="M3211.81,683.53c0-6.22-.28-12.45.09-18.64.31-5.35-2.16-13.36,6.72-13.41,9.25-.05,7.6,8.19,7.77,14.06.35,12,.06,24.08.38,36.11.22,8.61,3.38,15.93,11.25,20.43,15.13,8.66,32.25-1.17,34-20.23,1-11.17-.11-22.54.6-33.75.39-6.11-4-16.35,7-16.46,10.62-.1,7.39,9.93,7.64,16.26.45,11.24.54,22.54-.06,33.78-1.22,23.07-17.17,38.32-38.92,37.9-21.91-.42-36.26-16-36.5-39.74C3211.77,694.4,3211.81,689,3211.81,683.53Z"/><path class="cls-1" d="M2658.41,701.13c0-8.14-.28-16.3.08-24.42.35-7.87-2.67-11.69-10.8-11a63,63,0,0,1-8.13-.09c-5.11-.23-9.41-1.54-9.07-7.93.31-5.68,4.35-6.81,9-6.82q26.75-.09,53.5,0c5.25,0,9.42,1.77,9.18,7.89-.21,5.56-4.49,6.4-9,6.91-19.7,2.16-19.69,2.21-19.7,21.73q0,20.35-.06,40.71c0,5-1,9.7-7.34,9.59s-7.35-4.83-7.42-9.78c-.13-8.92,0-17.84,0-26.75Z"/><path class="cls-1" d="M3378.69,650.89c9.31,0,18.62-.1,27.93,0,4.87.07,8.38,2.26,8.21,7.66-.15,4.81-3.65,6.19-7.85,6.95-6.67,1.2-15.46-3.24-19.69,3.27s-1.36,15.15-1.52,22.86c-.26,12-.05,24.05-.14,36.08,0,4.83-.37,9.88-6.93,9.93-6.36.05-7.42-4.87-7.48-9.71-.21-16.29-.6-32.61,0-48.88.34-10-3.06-14.68-13.35-13.43a32.29,32.29,0,0,1-5.81-.1c-5.07-.34-9.44-1.72-9.16-8,.26-5.72,4.52-6.66,9.06-6.71,8.92-.1,17.84,0,26.77,0Z"/><path class="cls-1" d="M3100.08,694.23c0-10.83,0-21.66,0-32.49,0-5.31.55-10.69,7.7-10.38,6.18.27,7.05,5.21,7.08,10.07.13,16.63.47,33.28,0,49.89-.26,9.12,3.18,12.58,12.2,12.08,8.47-.48,17-.14,25.51.14,4.58.15,8.68,1.83,8.65,7.31s-4.06,7.17-8.69,7.21c-14.31.16-28.62.09-42.94.11-6.89,0-9.58-3.75-9.53-10.29C3100.16,716.67,3100.1,705.45,3100.08,694.23Z"/><path class="cls-1" d="M3485.76,694.43c0,11.2,0,22.41,0,33.62,0,5-1,9.69-7.34,9.6-6-.08-7.71-4.41-7.73-9.52q-.11-33.63,0-67.24c0-5,1.58-9.48,7.64-9.58,6.3-.1,7.42,4.45,7.44,9.5C3485.79,672,3485.76,683.22,3485.76,694.43Z"/><path class="cls-1" d="M2573.2,695.25c0,11.22,0,22.44,0,33.66,0,4.59-1.12,8.76-6.86,8.78-5.55,0-7.36-4-7.39-8.56q-.24-34.82,0-69.63c0-4.66,2.22-8.47,7.7-8.21,5.71.28,6.51,4.61,6.54,9.13C2573.25,672,2573.21,683.64,2573.2,695.25Z"/><path class="cls-2" d="M3044.56,460.09c0-25.55-.15-51.09.07-76.64.13-15.4,7.73-25.25,22.64-25.66,31.35-.85,62.79-2.43,94.1,1.09,4.73.54,9.34,2.32,13.94,3.75,6.08,1.9,13.34,10.29,16.26-3.46.21-1,3.63-1.86,5.55-1.83,21.71.36,43.53-2.07,65.12,1.36,33.51,5.31,54,29.11,54.2,62.84.22,38-.19,75.95.22,113.92.1,9.47-3.06,13.26-12.52,12.61a192.36,192.36,0,0,0-22.78,0c-8.4.43-11.56-2.87-11.47-11.47.34-34.86.16-69.73.1-104.6a91.31,91.31,0,0,0-.69-12.38c-1.3-9.63-6.66-14.72-16.74-14.55-10.35.17-20.71.11-31.06,0-6.28-.07-7.83,2.54-7.74,8.93.6,41.41.58,82.83.87,124.24,0,7.13-3.44,9.87-10.22,9.75-8.28-.15-16.59-.41-24.85.1-9.54.58-12.67-3.56-12.58-12.81.33-35.21.14-70.43.11-105.64,0-21.89-2.67-24.56-24.32-24.59-13.12,0-26.26.43-39.35-.15-9.32-.41-12.71,2.63-12.59,12.36.47,39-.11,78,.39,117,.13,10.24-2.75,14-13.37,13.93-33.3-.11-33.3.27-33.3-33.21Q3044.55,487.53,3044.56,460.09Z"/><path class="cls-1" d="M2903.54,357.84c15.86,0,31.88-1.45,47.55.29,34.95,3.89,56.2,28.46,56.67,63.67.27,20,.1,40,0,60-.09,36.67-20.7,61.27-57.38,64.8a491.19,491.19,0,0,1-98.12-.23c-33-3.44-54.47-28.82-54.6-62-.05-13.46.24-26.92-.09-40.37-.17-7.22,2-10.86,9.9-10.68a179.42,179.42,0,0,0,23.72-1.38c9.51-1.06,14,1.82,13.37,12.32-.76,12.38-.3,24.84-.12,37.26.18,13,5.08,18.4,18.16,18.58q40.36.53,80.73,0c12-.17,17.19-5.06,17.57-17.12.63-20.33.7-40.71.09-61-.35-11.94-5.9-16.71-17.78-16.8-26.91-.22-53.82,0-80.73-.11-10.68,0-17.19,4.6-18,15.55-.41,5.45-3.46,7.09-8.15,7.11-10,.07-20,0-30,.07-6.8.07-8.61-3.52-8.74-9.81-.49-25.11,18-49.51,43.16-57C2861.46,354.72,2882.61,358.22,2903.54,357.84Z"/><path class="cls-2" d="M1273.48,357.19c14,.8,31.59-1.51,49.1,1.62,32.42,5.78,54.51,33.15,51.84,64.54-3.08,36.16-26.83,60-61.12,60.62-24.15.43-48.33-.22-72.48.24-9.34.18-11.64-3.69-11.66-12.35-.11-32.19-.35-32.19,31.92-32.19,15.53,0,31.06.15,46.59-.08,13.83-.21,21.26-6.81,21.54-18.48.27-11.45-7.09-19-20.89-19.3-25.53-.51-51.08-.56-76.61.06-14.38.35-20.19,7.16-20.37,21.87q-.37,29,0,58c.19,14.95,5.69,20.44,21,20.64,22.43.31,44.87.39,67.3,0,9-.15,12.51,3.12,11.87,12.14-.58,8.24-.27,16.56-.12,24.84.09,5.54-2.31,8.49-7.9,8.47-25.88-.1-51.89,1.35-77.6-.75-36.52-3-56.35-23.21-59.34-59.68-2-24.35-2.38-49,.51-73.39,4.13-35,27.17-55.63,62.49-56.75C1243,356.83,1256.43,357.19,1273.48,357.19Z"/><path class="cls-2" d="M3446.14,458.81c0-25.54-.12-51.09,0-76.63.1-14.58,7.92-24.35,22.4-24.52,38.62-.44,77.38-3.14,115.83,1.33,41.56,4.84,70.43,36.66,71.61,78.26.95,33.45.08,66.95.33,100.43.05,7.67-3.13,10.56-10.51,10.33q-12.93-.39-25.88,0c-7.49.21-10.33-3-10.26-10.53.27-28.64.05-57.29.12-85.94,0-8-.62-16-3.41-23.43-5.21-13.93-15.57-22.27-30.4-22.7-24.83-.71-49.7-.16-74.54-.39-8-.08-8.65,4.65-8.63,10.83q.15,59,0,118c0,13.7-.31,14-13.77,14.08-7.6.06-15.2-.2-22.78,0s-10.38-2.91-10.29-10.5C3446.32,511.27,3446.14,485,3446.14,458.81Z"/><path class="cls-1" d="M2194.72,548c-17.54-.89-39.31,1.62-60.95-1.31-34-4.6-55.09-28.41-55-62.6.09-28.15-4-25.07,25.4-25.6,22.58-.4,20.91-2.46,21.11,20,.15,16.9,4.7,21.69,21.51,21.79,35.52.22,71,.33,106.58-.05,9.63-.1,14.09,2.69,13.16,12.93a137,137,0,0,0,0,22.74c.67,8.94-2.72,12.4-11.77,12.19C2236.13,547.68,2217.5,548,2194.72,548Z"/><path class="cls-1" d="M2193.59,357.14c23.28,0,42.28.35,61.25-.15,9.29-.25,12.27,3.48,11.67,12.26a170.45,170.45,0,0,0,0,23.81c.68,9.06-2.94,12.18-11.89,12.1-34.17-.32-68.35.09-102.53-.22-13.59-.13-26.27-.29-27.32,18.18-.21,3.77-3.94,4.51-7.15,4.54-10.36.1-20.71,0-31.07,0-7.36,0-7.87-4.88-7.81-10.59.29-28.43,21.45-53.23,50.9-58.33C2152.24,354.86,2175.15,358.19,2193.59,357.14Z"/><path class="cls-2" d="M3870.48,278.17c-15.48-.07-15.53,0-15.54,15.4q0,93.15,0,186.3c0,16.33-3.84,20.3-20.1,20.45q-37.26.36-74.52,0c-16.51-.14-21-4.69-21.1-20.95-.13-17.25-.07-34.5,0-51.75.06-19.48,3.21-22.56,23.12-22.6,22.08-.05,44.16-.15,66.24,0,6.88.05,10.4-2.26,10.45-9.11h0l-.07-29.08c0-.63,0-1.22,0-1.78V365h0c-.35-5.84-3.64-7.91-9.91-7.86-24.49.18-49-.66-73.47.29-42.16,1.64-65.55,34.07-63.15,66.06,1.57,20.93.15,42.07.34,63.11.3,31.19,22.46,56.35,53.39,60,27.14,3.22,54.44,1.08,81.67,1.29,31.86.23,50.73-7.71,63.62-28.49A76.51,76.51,0,0,0,3902.54,479V278.69C3891.85,278.51,3881.17,278.21,3870.48,278.17Z"/><path class="cls-1" d="M2635,357.17c16.51.82,37.67-2.11,58.5,1.85,32.7,6.21,56.08,23.79,66.12,56.59,3.17,10.33,1.81,11.9-9.29,12.19-4.48.11-9-.19-13.45.07-12.63.74-24.14.72-32.06-12.57-4.44-7.46-13.78-10.06-22.83-10.1-24.14-.12-48.28.09-72.42-.24-8.14-.11-10.36,3.9-9.52,10.91,1.07,9-2.81,12.55-11.78,12.05-8.59-.48-17.23-.22-25.85-.13-6.41.06-9.41-2.63-9.26-9.33.27-11.72,0-23.45.08-35.17.17-16.28,9-25.58,25.56-26C2596,356.82,2613.23,357.17,2635,357.17Z"/><path class="cls-1" d="M2716.8,491.64c0-15.15.42-30.33-.17-45.46-.31-7.89,2.76-10.48,10.08-10.35,9.3.15,18.6-.05,27.9-.31,6.16-.17,8.71,2.72,8.7,8.7q-.07,47.53,0,95.07c0,6.2-3,8.69-8.87,8.65-9.3-.05-18.6-.12-27.9,0-6.88.12-10-2.68-9.81-9.85.3-15.49.09-31,.09-46.5Z"/><path class="cls-1" d="M2599.94,494.72c0,14.16-.33,28.32.14,42.46.27,8.24-3.15,11.15-11,10.86-8.62-.31-17.26-.19-25.89,0-6.64.11-10.19-2.11-10.13-9.56.24-29,.2-58,0-87,0-6.61,2.72-9.4,9.18-9.49,10-.14,20-.38,30-1,6.26-.38,7.7,2.86,7.67,8.17C2599.87,464.35,2599.93,479.54,2599.94,494.72Z"/><path class="cls-1" d="M2417.14,357.16c12.81.71,28.73-1.5,44.47,1.73,29.61,6.08,49.07,27.47,51.3,55.88.71,9-1.61,13.79-11.65,13.16-8.59-.55-17.25-.18-25.87-.14-5.56,0-8.86-1.7-9.44-8.15-.94-10.36-7.52-14.69-17.73-14.62-21.74.16-43.48.05-65.22,0-16.29,0-16.29,0-16.3-16.77,0-6.91.31-13.82-.07-20.7-.4-7.53,2.65-10.68,10.23-10.5C2389.27,357.37,2401.7,357.16,2417.14,357.16Z"/><path class="cls-1" d="M2349.33,352.8c0,21.36-.25,42.72.14,64.08.14,8.07-2.9,11.28-10.83,11-8.95-.32-17.92-.18-26.87-.09-6.36.07-9.3-2.53-9.28-9.26q.24-65.62,0-131.26c0-6.58,2.54-9.37,9.16-9.18,8.95.26,17.93.39,26.87-.06,7.95-.41,11.07,2.54,10.92,10.7C2349.08,310.08,2349.33,331.44,2349.33,352.8Z"/><path class="cls-1" d="M2512.92,495.61c0,14.12-.21,28.25.11,42.37.15,7-2.61,10.14-9.63,10-9.3-.19-18.61-.13-27.91,0-6.32.06-9.38-2.44-9.33-9.22.2-27.9.15-55.81,0-83.72,0-5.69,1.64-8.82,7.91-9.6,10.65-1.33,21.31-1.07,32-1.32,6.52-.15,6.83,4.39,6.83,9.13Q2512.93,474.43,2512.92,495.61Z"/><path class="cls-1" d="M2349.33,498.93c0,12.74-.34,25.5.13,38.23.3,8.19-3.12,11.15-10.94,10.88-9.29-.32-18.6-.12-27.9-.17-5.45,0-8.09-2.57-8.07-8.26q.15-40.29,0-80.6c0-5.73,2.72-8.12,8.12-8.23,9.64-.21,19.29-.27,28.92-.74,7-.34,10,2.45,9.81,9.62C2349.09,472.74,2349.32,485.84,2349.33,498.93Z"/><path class="cls-1" d="M1952.75,357.21c13.86.76,32.2-1.72,50.37,1.78,29.35,5.66,50.51,30.75,50,58.83-.12,7.07-2.69,10.19-9.7,10-5.86-.17-11.74-.17-17.6.05-9.7.37-18.9,1.11-18.49-13.38.15-5.23-4.95-9-10.24-10.53a45.86,45.86,0,0,0-12.16-2.21c-23.82-.21-47.64-.35-71.46,0-15,.19-20.29,4.43-23.81,19.12-1.25,5.22-3.91,6.85-8.52,6.89-8.63.07-17.27-.17-25.89.15-8.35.32-10.85-3.59-10.16-11.45,3-34.37,27.09-57.75,61.82-59.12C1920.73,356.75,1934.55,357.21,1952.75,357.21Z"/><path class="cls-1" d="M1941.73,548c-13-.49-28.62,1.22-44-1.52-36.66-6.52-55.58-34.71-52.63-72.25.38-4.75,3.09-6.7,7.37-7,5.16-.3,10.34-.39,15.51-.52,19-.49,19-.48,21.7,18.43,1.56,10.87,7.91,16.84,19.76,17.06,21.38.4,42.76.2,64.14.23,17.28,0,17.28,0,17.3,16.77,0,5.52-.5,11.09.1,16.54,1.09,9.92-3.63,12.67-12.66,12.32C1966.94,547.65,1955.55,548,1941.73,548Z"/><path class="cls-1" d="M1955.38,484.07c-12.76,0-25.53-.17-38.3.06-6.91.12-10-2.56-10-9.72.1-29.17-1.73-24.14,23.14-24.34,32.43-.27,64.86-.12,97.3,0,10.17,0,10.09.78,6.07,9.78-8,18-22.85,23.82-40.95,24.2C1980.23,484.28,1967.8,484.07,1955.38,484.07Z"/><path class="cls-1" d="M1781.59,405.06c-9.65,0-19.32.26-29-.09-7.41-.27-11.3,2.42-10.28,10.16,1.36,10.29-3.58,13.47-13.14,12.8a213.12,213.12,0,0,0-22.75-.06c-7.63.28-12.11-2.31-11-10.67,1.32-9.76-3.17-12.74-12.44-12.3-12,.58-24.13-.09-36.2.2-7.66.19-11.62-2.31-11.21-10.67.44-8.94.34-17.93,0-26.89-.27-7.46,2.73-10.64,10.31-10.48,13.45.29,26.9-.12,40.34.12,6.6.11,9.33-2.43,9.19-9.14-.27-13.44.22-26.9-.15-40.33-.22-7.75,2.18-11.56,10.55-11.11,8.93.48,17.93.38,26.88,0,7.27-.27,9.72,3,9.59,9.92-.27,13.44.24,26.9-.16,40.33-.22,7.56,2.46,10.48,10.15,10.34,19-.35,37.94.23,56.89-.24,9-.22,12.52,3,11.9,12a185.05,185.05,0,0,0,0,24.81c.6,8.87-3.49,11.57-11.63,11.27-9.3-.35-18.62-.08-27.93-.08Z"/><path class="cls-1" d="M1742.29,510.1c0,9.66-.18,19.32,0,29,.14,6.18-2.72,8.85-8.65,8.84-9.66,0-19.32-.06-29,0-6.36.07-9.39-2.53-9.31-9.27.24-19,.12-37.95.08-56.93,0-5.06,1.16-8.68,7.34-8.85,9.64-.26,19.28-.74,28.89-1.56,8.26-.71,11.08,2.88,10.7,10.82C1742,491.45,1742.3,500.78,1742.29,510.1Z"/><path class="cls-2" d="M1612.7,422.44c-2.46-39.84-22.47-61.61-60.44-64.53-26.07-2-52.41-.56-78.63-.67-5.59,0-8.12,2.67-8,8.28.12,8.63.57,17.3-.17,25.87-.91,10.35,2.81,14.12,13.37,13.82,21.72-.63,43.48-.25,65.22-.16,16.38.07,21.14,4.72,21.25,20.79q.18,26.91,0,53.83c-.11,15.33-5.08,20.5-20.56,20.65q-36.75.38-73.5,0c-16.79-.14-21.61-5.07-21.66-21.77-.09-34.51,0-69,0-103.52,0-28.3-.21-56.6.11-84.89.09-7.57-1.9-11.72-8.58-12.17h0a22.41,22.41,0,0,0-2.32,0l-24.75,0a25.32,25.32,0,0,0-2.75,0H1411v0c-6.84.47-9.37,4.42-9.25,12.93.47,32.08.18,64.18.17,96.27V479.3c0,.69,0,1.38,0,2.07.52,36.74,21.06,61.4,57.41,65.28,31.55,3.37,63.5,2.92,95.08.27,34.42-2.89,53.73-23.88,57.52-58.33C1614.39,466.57,1614.05,444.4,1612.7,422.44Z"/><path class="cls-2" d="M3403.79,453.34c0,27.28-.39,54.56.2,81.83.22,10.19-3.52,13.6-13.22,12.91-7.9-.56-15.88-.27-23.81-.1-6.83.14-9.95-2.49-9.93-9.76q.25-85.46,0-170.91c0-7.76,3.18-10.47,10.51-10.21a233.64,233.64,0,0,0,23.82-.05c9.28-.62,12.81,2.71,12.62,12.39C3403.45,397.4,3403.79,425.37,3403.79,453.34Z"/><path class="cls-2" d="M3380.68,278.14c25.74.32,23.05-3,23.05,21,0,24.45,2.75,21.56-22.48,21.49-27.74-.08-23.84,3.7-24.11-24-.18-18.45,0-18.45,18.38-18.46Z"/><path class="cls-2" d="M1124.29,291.31c-7.24,0-14.55.58-21.72-.14-9.83-1-13.12,3.62-14.68,12.6-8.08,46.54-16.62,93-25,139.49-.46,2.53,0,5.6-3.6,7.27-1.74-2.46-3.62-4.85-5.22-7.41q-28.26-45.21-56.43-90.46c-3.28-5.27-6.39-10.66-11-15-9.73-9.11-23.14-8.86-32.26.89a65.59,65.59,0,0,0-7.41,9.93c-19.29,30.67-38.44,61.42-57.81,92-2,3.25-3.17,9.23-7.74,8.28-3.48-.72-2.86-6.5-3.51-10.06-2.61-14.4-5.08-28.82-7.68-43.21-2.41-13.36-3.7-28.35-7.47-42.22h0c-9.6-54.19-83.55-64.62-83.55-64.62,12.76,5.78,20.8,17.67,20.77,17.67,6.48,8.15,10.27,18.38,12.26,30.37,9.88,59.53,20.74,118.89,31.3,178.3,1.21,6.79,2.78,13.53,6.56,19.5,8.16,12.92,22.18,14.88,33.45,4.63,4.65-4.24,7.89-9.55,11.13-14.86q35-57.45,70.07-114.87c6.2-10.15,6.27-10.13,12.18-.39,17.72,29.21,35.35,58.46,53.15,87.61,7.72,12.66,15.1,25.61,23.81,37.57,9.47,13,25,14.58,35,4.76,5.17-5,7.13-11.62,8.37-18.54Q1109.58,451.22,1122,382q6.84-38.19,13.67-76.37C1138.18,291.76,1137.88,291.36,1124.29,291.31Z"/><rect class="cls-2" x="183.58" y="43.65" width="56.48" height="54.57" rx="6.86" transform="translate(13.63 173.98) rotate(-45.99)"/><rect class="cls-2" x="258.94" y="19.82" width="30.41" height="29.38" rx="3.69" transform="translate(58.84 207.68) rotate(-45.99)"/><path class="cls-2" d="M168.15,215.9l-15,15.52-17,17.59a7.38,7.38,0,0,1-10.44.17L94.11,218.63a7.38,7.38,0,0,1-.18-10.43l32-33.1a7.38,7.38,0,0,1,10.44-.19l19.88,19.21,10.49,10.14,1.25,1.21A7.37,7.37,0,0,1,168.15,215.9Z"/><rect class="cls-2" x="18.67" y="185.61" width="47.59" height="45.98" rx="5.78" transform="translate(-137.06 94.2) rotate(-45.99)"/><rect class="cls-3" x="15.37" y="134.67" width="30.36" height="29.33" rx="3.69" transform="translate(-98.07 67.54) rotate(-45.99)"/><rect class="cls-3" x="69" y="254.49" width="19.97" height="19.3" rx="2.42" transform="translate(-165.86 137.41) rotate(-45.99)"/><rect class="cls-3" x="52.6" y="307.66" width="47.59" height="45.98" rx="5.78" transform="translate(-214.47 155.84) rotate(-45.99)"/><path class="cls-3" d="M176.34,106.79l-32-30.9a7.45,7.45,0,0,0-10.55.18l-6.75,7,11.36,11a12.88,12.88,0,0,1,.32,18.2h0l-21.83,22.6L133.63,151a7.45,7.45,0,0,0,10.55-.18l32.35-33.47A7.46,7.46,0,0,0,176.34,106.79Z"/><rect class="cls-2" x="66.58" y="74.89" width="61.47" height="59.39" rx="7.46" transform="translate(-45.52 101.9) rotate(-45.99)"/><path class="cls-2" d="M798.09,327h0a.25.25,0,0,0,0-.08Z"/><path class="cls-2" d="M798.09,327a.25.25,0,0,0,0-.08l-1.54-14.77q-.36-2.85-.77-5.69l-3.52,3.76-6.71,7.18-84.07,90-.07.09h0c-20.56,22.29-41.86,44.69-65.17,67.79-9,8.95-18.22,15.43-30.37,17.73-10.43,2-21,3.76-31.66,2.79-21.64-2-43.92-4.12-60.39-19.81-35.73-34.06-70.45-69.19-105.42-104-.44-.44-.87-.88-1.26-1.33-8.65-9.58-6.51-18.94,6.1-24.51,17.38-7.67,35.6-9.92,54.24-5a33.76,33.76,0,0,1,16.69,9.65c18.3,20,36.81,39.73,54.88,59.9,5.17,5.75,8.13,7.31,14.09.27,32-37.72,64.52-74.91,96.67-112.47h0l0,0h0c.14-.18.9-1.16,2.3-2.69l.87-1a50.72,50.72,0,0,1,11.75-10.26c19.56-14.53,58-31.67,113.38-4.93q4.92,2.37,10,5.22,2.14,1.2,4.32,2.49-1.19-5.86-2.58-11.66A341.53,341.53,0,0,0,683.75,99.4l-1.42-1.25-.56-.49-.16-.14q2.75,4.28,5.24,8.89,3.07,5.69,5.75,11.8c8,18.08,13.37,38.62,16.35,58.66C681,117,637,81.4,637,81.4h0a246.46,246.46,0,0,0-19.73-16.55,249.93,249.93,0,0,0-32.58-20.81q-5.08-2.71-10.15-5.13c-36.3-17.37-71.36-23.51-95.67-23.81h0q-12.27-1.17-24.51-1.29a294.68,294.68,0,0,0-77,9.45q-45.19,11.61-90,37.48c-7.46,4.31-15.59,8.17-19.15,16.34a22.53,22.53,0,0,0-1.73,6.9,4.89,4.89,0,0,1-.37,1.47c-1,2.39-3.54,4.71-5.5,6.72-10.06,10.29-20.31,20.41-30.49,30.6-3.43,3.43-7.27,7.53-12.16,6.57l-.08,0a14.47,14.47,0,0,0-9,.63,330.6,330.6,0,0,0-35.5,48.53c-1.3,3.35-.52,5.44,2.59,8.91l.46.5c.72.77,1.55,1.63,2.5,2.58,1.81,1.81,4,4,6.71,6.7s5.38,5.29,8,8c8.15,8.53,9,15.21,2.24,23.43-.64.78-1.35,1.58-2.14,2.39-10.46,10.86-21.37,21.3-31.91,32.1-5.23,5.35-11.16,8.24-18.47,5.72l-.23-.08a6.8,6.8,0,0,0-3.79-.35c-1.81.46-2.74,2.13-3.27,4.65q-2.73,13.15-4.55,26.15c-7.25,51.86-3.2,102.07,16.54,152.6q1.38,3.56,2.84,7.07a0,0,0,0,0,0,0C188.67,568.24,282.11,651.6,397.32,675.1c-57.06-6.2-110-25-157.47-58.05a332.42,332.42,0,0,0,89.48,55.38q-14.85-6-29-13.35,5.16,2.77,10.42,5.37a327.92,327.92,0,0,0,129.35,33.36c3.65,0,7.36,0,11.11,0,1.9,0,3.81.05,5.73.05a334.37,334.37,0,0,0,55.8-4.67q3.88-.57,7.77-1.25,15.81-3.12,31.05-7.74l.14,0c142.93-40.9,247.54-172.53,247.54-328.6Q799.26,341.13,798.09,327ZM428.58,474.52c-3.07,4.41-8.39,8.25-16,11.39C385.82,497,358.19,498.8,330,491.83a46.76,46.76,0,0,1-24.16-14.71q-68.13-76.2-136.45-152.23a45.48,45.48,0,0,1-5.75-7.79c-7.23-12.64-2.72-23.51,13.63-31,17.05-7.76,35.2-11,53.83-11.19,25.83-.69,46.49,7.93,64,28.22,41.2,47.66,84,93.94,126.29,140.64C432.06,455.5,434.47,466.06,428.58,474.52Z"/></g></svg>