<?xml version="1.0" encoding="UTF-8"?> <svg xmlns="http://www.w3.org/2000/svg" width="149" height="68" viewBox="0 0 149 68" fill="none"><path d="M28.9365 51.5021V55.9892H26.2444C24.3256 55.9892 22.8296 55.5197 21.7573 54.5808C20.6841 53.6419 20.1479 52.1106 20.1479 49.9852V43.1147H18.0435V38.72L25.4397 32.2176V38.72H28.9059V43.1147H25.4397V50.0471C25.4397 50.5632 25.5635 50.9345 25.8111 51.1612C26.0587 51.3887 26.4711 51.5013 27.049 51.5013H28.9365V51.5021Z" fill="#020200"></path><path d="M48.0615 48.6235H36.0849C36.1669 49.6966 36.5126 50.5165 37.1219 51.0841C37.7304 51.6516 38.478 51.9353 39.3655 51.9353C40.6854 51.9353 41.6034 51.3783 42.1195 50.2641H47.7521C47.4627 51.3992 46.9418 52.4201 46.1894 53.3276C45.4362 54.236 44.4924 54.9474 43.3574 55.4626C42.2224 55.9787 40.9539 56.2368 39.5512 56.2368C37.8591 56.2368 36.3534 55.8758 35.0327 55.154C33.712 54.4321 32.6806 53.4008 31.9379 52.0591C31.1951 50.7183 30.8237 49.15 30.8237 47.355C30.8237 45.56 31.1895 43.9925 31.9218 42.6508C32.6541 41.31 33.6806 40.2787 35.0014 39.556C36.3213 38.8341 37.8382 38.4732 39.5504 38.4732C41.2216 38.4732 42.7071 38.8245 44.0069 39.5255C45.3067 40.2272 46.3228 41.2272 47.0551 42.527C47.7874 43.8269 48.1532 45.3429 48.1532 47.076C48.154 47.572 48.1234 48.0873 48.0615 48.6235ZM42.7384 45.6838C42.7384 44.7762 42.429 44.0544 41.81 43.5174C41.191 42.9812 40.4169 42.7127 39.4885 42.7127C38.601 42.7127 37.8534 42.9708 37.2449 43.486C36.6364 44.0021 36.2594 44.7344 36.1155 45.6838H42.7384Z" fill="#020200"></path><path d="M50.9861 42.6508C51.7184 41.31 52.7393 40.2787 54.0496 39.556C55.3598 38.8341 56.8606 38.4732 58.5519 38.4732C60.7183 38.4732 62.5286 39.0407 63.9828 40.1758C65.4369 41.3108 66.3919 42.9097 66.8453 44.9724H61.2127C60.7376 43.6524 59.8204 42.9917 58.4587 42.9917C57.4884 42.9917 56.7151 43.3687 56.1372 44.1211C55.5592 44.8743 55.2706 45.9523 55.2706 47.355C55.2706 48.7577 55.5592 49.8357 56.1372 50.5889C56.7143 51.3421 57.4884 51.7183 58.4587 51.7183C59.8204 51.7183 60.7384 51.0583 61.2127 49.7376H66.8453C66.3911 51.7601 65.4321 53.3485 63.9675 54.5036C62.5021 55.6596 60.6974 56.2368 58.5519 56.2368C56.8598 56.2368 55.359 55.8758 54.0496 55.154C52.7393 54.4321 51.7176 53.4008 50.9861 52.0591C50.2538 50.7183 49.8872 49.15 49.8872 47.355C49.8872 45.56 50.2538 43.9925 50.9861 42.6508Z" fill="#020200"></path><path d="M85.043 40.5005C86.2392 41.8108 86.838 43.6106 86.838 45.9008V55.9892H81.5768V46.6122C81.5768 45.4571 81.2778 44.5592 80.6797 43.9193C80.0808 43.2803 79.2762 42.9603 78.2657 42.9603C77.2545 42.9603 76.4498 43.2803 75.8518 43.9193C75.2529 44.5592 74.9547 45.4563 74.9547 46.6122V55.9892H69.6621V33.0882H74.9539V41.0415C75.49 40.2787 76.2224 39.6693 77.1516 39.2152C78.0801 38.7618 79.1218 38.5343 80.277 38.5343C82.2577 38.5351 83.8461 39.1903 85.043 40.5005Z" fill="#020200"></path><path d="M95.8128 33.0882V55.9892H90.521V33.0882H95.8128Z" fill="#020200"></path><path d="M99.6041 42.6508C100.274 41.31 101.187 40.2787 102.343 39.556C103.498 38.8341 104.788 38.4732 106.211 38.4732C107.428 38.4732 108.495 38.7208 109.414 39.216C110.332 39.7111 111.039 40.3607 111.534 41.1661V38.7208H116.826V55.9892H111.534V53.5447C111.018 54.3493 110.301 54.9988 109.383 55.494C108.464 55.9892 107.397 56.2368 106.18 56.2368C104.777 56.2368 103.497 55.871 102.342 55.1379C101.187 54.4056 100.274 53.3638 99.6033 52.0125C98.9321 50.6612 98.5977 49.0985 98.5977 47.3244C98.5977 45.5495 98.9329 43.9925 99.6041 42.6508ZM110.435 44.2296C109.703 43.4667 108.811 43.0841 107.758 43.0841C106.706 43.0841 105.814 43.4611 105.082 44.2135C104.349 44.9667 103.983 46.0037 103.983 47.3236C103.983 48.6444 104.348 49.691 105.082 50.4643C105.814 51.2384 106.706 51.625 107.758 51.625C108.811 51.625 109.703 51.2432 110.435 50.4796C111.168 49.7167 111.534 48.6741 111.534 47.3542C111.534 46.0351 111.168 44.9925 110.435 44.2296Z" fill="#020200"></path><path d="M128.09 39.216C129.019 38.7208 130.082 38.4732 131.278 38.4732C132.702 38.4732 133.991 38.8341 135.147 39.556C136.302 40.2787 137.215 41.31 137.885 42.6508C138.556 43.9925 138.891 45.5495 138.891 47.3236C138.891 49.0977 138.555 50.6612 137.885 52.0117C137.215 53.363 136.302 54.4056 135.147 55.1371C133.991 55.8694 132.702 56.2359 131.278 56.2359C130.061 56.2359 128.999 55.9932 128.09 55.5085C127.182 55.0237 126.471 54.379 125.955 53.5744V55.9884H120.664V33.0882H125.955V41.1653C126.45 40.3607 127.162 39.7111 128.09 39.216ZM132.407 44.2135C131.675 43.4603 130.772 43.0841 129.699 43.0841C128.647 43.0841 127.754 43.4659 127.022 44.2296C126.29 44.9933 125.923 46.0351 125.923 47.355C125.923 48.6757 126.29 49.7175 127.022 50.4804C127.754 51.244 128.647 51.6259 129.699 51.6259C130.751 51.6259 131.648 51.2392 132.391 50.4651C133.134 49.6918 133.505 48.6444 133.505 47.3244C133.506 46.0037 133.139 44.9675 132.407 44.2135Z" fill="#020200"></path><path d="M3.95814 66.4931H1.31828L0.876165 67.5253H0.0498047L2.22503 62.4594H3.05059L5.22581 67.5253H4.40026L3.95814 66.4931ZM3.67036 65.8219L2.63821 63.4184L1.60606 65.8219H3.67036Z" fill="#F4C919"></path><path d="M11.1248 64.797H13.2189V66.8179C12.7398 67.305 11.9432 67.6145 11.2277 67.6145C9.80492 67.6145 8.58789 66.4127 8.58789 64.9891C8.58789 63.5655 9.80492 62.371 11.2277 62.371C11.9432 62.371 12.739 62.6732 13.2189 63.1676L12.6956 63.6692C12.3491 63.293 11.7519 63.0574 11.2277 63.0574C10.2101 63.0574 9.35477 63.9425 9.35477 64.9891C9.35477 66.0438 10.2101 66.9288 11.2277 66.9288C11.6554 66.9288 12.1345 66.7737 12.4809 66.5084V65.4457H11.124V64.797H11.1248Z" fill="#F4C919"></path><path d="M17.229 62.4594H17.9742V67.5253H17.2298V62.4594H17.229Z" fill="#F4C919"></path><path d="M25.4067 66.8323V67.5253H21.9702V62.4594H22.7226V66.8323H25.4067Z" fill="#F4C919"></path><path d="M29.8888 63.1523V64.5976H32.5729V65.2906H29.8888V66.8315H32.8607V67.5245H29.1372V62.4586H32.8607V63.1515H29.8888V63.1523Z" fill="#F4C919"></path><path d="M41.8037 62.4594H43.9347C45.0038 62.4594 45.8149 63.1451 45.8149 64.1113C45.8149 65.0775 45.0038 65.7632 43.9347 65.7632H42.5481V67.5253H41.8037V62.4594ZM43.831 65.0695C44.5609 65.0695 45.0553 64.7086 45.0553 64.1105C45.0553 63.5132 44.5609 63.1523 43.831 63.1523H42.5481V65.0695H43.831Z" fill="#F4C919"></path><path d="M52.2511 65.6893L53.5413 67.5253H52.686L51.4472 65.7632H50.2825V67.5253H49.5381V62.4594H51.6691C52.7382 62.4594 53.5493 63.1451 53.5493 64.1113C53.5485 64.8926 53.018 65.4899 52.2511 65.6893ZM50.2825 65.0695H51.5654C52.2953 65.0695 52.7897 64.7086 52.7897 64.1105C52.7897 63.5132 52.2953 63.1523 51.5654 63.1523H50.2825V65.0695Z" fill="#F4C919"></path><path d="M57.147 64.9883C57.147 63.5655 58.356 62.3702 59.7796 62.3702C61.2032 62.3702 62.3977 63.5647 62.3977 64.9883C62.3977 66.4119 61.2032 67.6137 59.7796 67.6137C58.356 67.6137 57.147 66.4119 57.147 64.9883ZM61.6373 64.9883C61.6373 63.9417 60.7892 63.0567 59.7788 63.0567C58.7683 63.0567 57.913 63.9417 57.913 64.9883C57.913 66.043 58.7683 66.928 59.7788 66.928C60.7892 66.928 61.6373 66.043 61.6373 64.9883Z" fill="#F4C919"></path><path d="M66.3481 62.4594H68.0957C69.7324 62.4594 70.8979 63.5068 70.8979 64.9891C70.8979 66.4714 69.7324 67.5261 68.0957 67.5261H66.3481V62.4594ZM68.1399 66.8468C69.3128 66.8468 70.1311 66.0799 70.1311 64.9883C70.1311 63.9039 69.3128 63.137 68.1399 63.137H67.0933V66.846H68.1399V66.8468Z" fill="#F4C919"></path><path d="M74.8638 65.3942V62.4594H75.6081V65.3798C75.6081 66.2865 76.1982 66.936 77.039 66.936C77.8726 66.936 78.4618 66.2873 78.4618 65.3798V62.4594H79.2142V65.3942C79.2142 66.6925 78.3075 67.6137 77.039 67.6137C75.7641 67.6137 74.8638 66.6917 74.8638 65.3942Z" fill="#F4C919"></path><path d="M83.0991 64.9883C83.0991 63.5655 84.3081 62.3702 85.7317 62.3702C86.4544 62.3702 87.1184 62.6724 87.5975 63.1668L87.0742 63.6684C86.7349 63.2994 86.2559 63.0567 85.7317 63.0567C84.7213 63.0567 83.866 63.9417 83.866 64.9883C83.866 66.043 84.7213 66.928 85.7317 66.928C86.255 66.928 86.7349 66.6844 87.0742 66.3163L87.5975 66.8179C87.1184 67.305 86.4544 67.6145 85.7317 67.6145C84.3089 67.6137 83.0991 66.4119 83.0991 64.9883Z" fill="#F4C919"></path><path d="M92.7065 63.1523H91.0474V62.4594H95.1181V63.1523H93.4517V67.5253H92.7073V63.1523H92.7065Z" fill="#F4C919"></path><path d="M103.7 66.7954L104.149 66.2423C104.599 66.67 105.13 66.9505 105.815 66.9505C106.516 66.9505 106.877 66.5816 106.877 66.1764C106.877 65.6973 106.457 65.5132 105.609 65.3211C104.577 65.0775 103.891 64.7681 103.891 63.8533C103.891 63.0052 104.628 62.3637 105.646 62.3637C106.427 62.3637 107.01 62.6515 107.496 63.0792L107.069 63.6395C106.641 63.2488 106.132 63.0197 105.616 63.0197C105.049 63.0197 104.65 63.3806 104.65 63.7866C104.65 64.2584 105.085 64.4208 105.918 64.6202C106.929 64.8565 107.629 65.1957 107.629 66.1025C107.629 66.9578 106.98 67.6065 105.786 67.6065C104.938 67.6065 104.238 67.3115 103.7 66.7954Z" fill="#F4C919"></path><path d="M111.293 64.9883C111.293 63.5655 112.502 62.3702 113.926 62.3702C114.649 62.3702 115.313 62.6724 115.792 63.1668L115.269 63.6684C114.929 63.2994 114.45 63.0567 113.926 63.0567C112.916 63.0567 112.06 63.9417 112.06 64.9883C112.06 66.043 112.916 66.928 113.926 66.928C114.449 66.928 114.929 66.6844 115.269 66.3163L115.792 66.8179C115.313 67.305 114.649 67.6145 113.926 67.6145C112.503 67.6137 111.293 66.4119 111.293 64.9883Z" fill="#F4C919"></path><path d="M123.748 62.4594V67.5253H123.003V65.2905H120.238V67.5253H119.494V62.4594H120.238V64.5976H123.003V62.4594H123.748Z" fill="#F4C919"></path><path d="M127.603 64.9883C127.603 63.5655 128.812 62.3702 130.235 62.3702C131.659 62.3702 132.853 63.5647 132.853 64.9883C132.853 66.4119 131.659 67.6137 130.235 67.6137C128.812 67.6137 127.603 66.4119 127.603 64.9883ZM132.093 64.9883C132.093 63.9417 131.245 63.0567 130.234 63.0567C129.224 63.0567 128.369 63.9417 128.369 64.9883C128.369 66.043 129.224 66.928 130.234 66.928C131.245 66.928 132.093 66.043 132.093 64.9883Z" fill="#F4C919"></path><path d="M136.517 64.9883C136.517 63.5655 137.726 62.3702 139.149 62.3702C140.573 62.3702 141.767 63.5647 141.767 64.9883C141.767 66.4119 140.573 67.6137 139.149 67.6137C137.726 67.6137 136.517 66.4119 136.517 64.9883ZM141.007 64.9883C141.007 63.9417 140.159 63.0567 139.148 63.0567C138.138 63.0567 137.283 63.9417 137.283 64.9883C137.283 66.043 138.138 66.928 139.148 66.928C140.159 66.928 141.007 66.043 141.007 64.9883Z" fill="#F4C919"></path><path d="M149 66.8323V67.5253H145.563V62.4594H146.316V66.8323H149Z" fill="#F4C919"></path><path d="M22.0026 28.1791C20.7438 27.6638 19.7381 26.9001 18.9857 25.8889C18.2325 24.8784 17.8354 23.6606 17.7944 22.237H23.427C23.509 23.0416 23.7872 23.6558 24.2622 24.0786C24.7365 24.5014 25.3555 24.7128 26.1191 24.7128C26.9029 24.7128 27.5219 24.5328 27.976 24.171C28.4294 23.8101 28.6569 23.3101 28.6569 22.6703C28.6569 22.1341 28.476 21.6904 28.1151 21.3399C27.7542 20.9894 27.3104 20.7008 26.7847 20.4733C26.2582 20.2466 25.5098 19.9886 24.5412 19.7C23.1376 19.2667 21.993 18.8335 21.1063 18.4002C20.2189 17.9669 19.4552 17.3279 18.8161 16.4814C18.1763 15.6357 17.8571 14.5312 17.8571 13.1703C17.8571 11.1486 18.5894 9.56504 20.0549 8.41955C21.5195 7.27406 23.4278 6.70172 25.7799 6.70172C28.173 6.70172 30.1022 7.27406 31.5668 8.41955C33.0315 9.56424 33.8152 11.1583 33.9189 13.2009H28.1939C28.1521 12.4999 27.894 11.9477 27.4198 11.5449C26.9447 11.143 26.3362 10.942 25.5942 10.942C24.9543 10.942 24.4383 11.1125 24.0468 11.4525C23.6545 11.7925 23.4584 12.2837 23.4584 12.9227C23.4584 13.6245 23.788 14.1711 24.4487 14.5626C25.1087 14.9549 26.14 15.3777 27.5436 15.8311C28.9463 16.3062 30.0861 16.7595 30.9632 17.1928C31.8402 17.6261 32.5982 18.2555 33.2373 19.0802C33.8763 19.9058 34.1962 20.9677 34.1962 22.2675C34.1962 23.5055 33.8811 24.63 33.2525 25.6405C32.6231 26.6517 31.7099 27.4564 30.5138 28.0545C29.3169 28.6533 27.9037 28.9516 26.2743 28.9516C24.6843 28.9524 23.2606 28.6943 22.0026 28.1791Z" fill="#020200"></path><path d="M47.9973 28.7353L42.7361 21.4934V28.7353H37.4443V5.83437H42.7361V18.4918L47.966 11.467H54.4957L47.3156 20.1325L54.5576 28.7361H47.9973V28.7353Z" fill="#020200"></path><path d="M56.9565 8.85203C56.3689 8.30541 56.0747 7.62937 56.0747 6.82471C56.0747 5.99996 56.3689 5.31347 56.9565 4.76685C57.5442 4.22103 58.3022 3.94692 59.2314 3.94692C60.139 3.94692 60.8874 4.22103 61.475 4.76685C62.0626 5.31427 62.3568 5.99996 62.3568 6.82471C62.3568 7.62937 62.0626 8.30541 61.475 8.85203C60.8874 9.39865 60.139 9.67196 59.2314 9.67196C58.303 9.67196 57.545 9.39865 56.9565 8.85203ZM61.8616 11.467V28.7353H56.5699V11.467H61.8616Z" fill="#020200"></path><path d="M70.991 5.83437V28.7353H65.6992V5.83437H70.991Z" fill="#020200"></path><path d="M80.1204 5.83437V28.7353H74.8286V5.83437H80.1204Z" fill="#020200"></path><path d="M86.9603 28.2096C85.7843 27.6943 84.8558 26.9877 84.175 26.0898C83.4941 25.1927 83.1123 24.1863 83.0303 23.073H88.2601C88.322 23.6719 88.6002 24.1558 89.0953 24.5272C89.5905 24.8985 90.199 25.0842 90.9209 25.0842C91.5808 25.0842 92.0913 24.9556 92.453 24.6976C92.814 24.4395 92.9948 24.1043 92.9948 23.692C92.9948 23.1968 92.7368 22.831 92.2207 22.5939C91.7046 22.3568 90.8694 22.0939 89.7143 21.8045C88.4764 21.5159 87.4442 21.2121 86.6195 20.8913C85.7939 20.5714 85.0825 20.0666 84.4836 19.3753C83.8848 18.6839 83.5865 17.7507 83.5865 16.5746C83.5865 15.5843 83.8598 14.6824 84.4065 13.8665C84.9531 13.0522 85.7577 12.4075 86.8204 11.9324C87.8823 11.4581 89.146 11.221 90.6114 11.221C92.7778 11.221 94.4844 11.758 95.7336 12.8303C96.9819 13.9034 97.699 15.3271 97.8847 17.1012H92.9948C92.912 16.5031 92.6492 16.0288 92.2054 15.6775C91.7617 15.3271 91.1789 15.151 90.4571 15.151C89.8381 15.151 89.363 15.27 89.0334 15.5071C88.7031 15.7443 88.5383 16.0698 88.5383 16.4822C88.5383 16.9774 88.8011 17.3487 89.3277 17.5963C89.8534 17.8439 90.6733 18.0915 91.7882 18.3391C93.0672 18.6695 94.1098 18.9942 94.9136 19.3142C95.7183 19.6341 96.4249 20.1494 97.0334 20.8616C97.6419 21.573 97.9562 22.528 97.9771 23.7241C97.9771 24.7354 97.6934 25.6381 97.1258 26.4323C96.5583 27.2265 95.7432 27.8511 94.6813 28.3045C93.6186 28.7578 92.3855 28.9853 90.9828 28.9853C89.4772 28.9829 88.1355 28.7257 86.9603 28.2096Z" fill="#020200"></path><path d="M132.044 20.3664L132 1.61013C132 0.450169 130.734 -0.269279 129.738 0.324768L117.312 8.87214L105.763 1.14441e-05V2.6881L117.257 11.5514V14.0602L124.586 8.52487C124.583 8.49191 124.583 8.45896 124.583 8.42519C124.583 6.68887 125.99 5.28213 127.726 5.28213C129.463 5.28213 130.869 6.68887 130.869 8.42519C130.869 10.1615 129.463 11.5658 127.726 11.5658C127.15 11.5658 126.611 11.4115 126.147 11.1414L117.312 17.688L105.763 8.58275V11.5715L117.257 20.4331V22.9444L124.587 17.4074C124.583 17.3632 124.583 17.3166 124.583 17.2708C124.583 15.5345 125.99 14.1277 127.726 14.1277C129.463 14.1277 130.869 15.5345 130.869 17.2708C130.869 19.0071 129.463 20.4139 127.726 20.4139C127.163 20.4139 126.636 20.2659 126.178 20.0055L117.312 26.5722L105.763 17.4669V20.5352L117.396 29.3527V31.7514L132.044 20.3664Z" fill="#FBC909"></path></svg> 