<svg id="Layer_1" data-name="Layer 1" xmlns="http://www.w3.org/2000/svg" viewBox="0 0 512 140"><defs><style>.cls-1,.cls-3{fill:#231f20;}.cls-1,.cls-2{fill-rule:evenodd;}.cls-2,.cls-4{fill:#ec1c24;}</style></defs><path class="cls-1" d="M6.64,30.58,52,107C62.23,88.76,72.27,70.78,82.6,52.26c-6.49,0-12.4.05-18.3,0a2.45,2.45,0,0,0-2.5,1.56C60,57.37,58,60.92,56.11,64.48c-1.41,2.62-2.84,5.24-4.45,8.21L36.77,47.25c6.8,0,12.92-.08,19,0a3.4,3.4,0,0,0,3.62-2.25c1.66-3.44,3.51-6.78,5.28-10.17.72-1.37,1.43-2.74,2.24-4.3ZM122,30.69a8.58,8.58,0,0,0-1.15-.22c-6,0-12-.07-17.95,0a3,3,0,0,0-2.11,1.39Q85.07,58.9,69.53,86a3.62,3.62,0,0,0,0,2.92c2.52,5.42,5.19,10.77,7.83,16.14.26.53.63,1,1.12,1.8ZM64.81,47.23c7.14,0,13.76,0,20.37-.06.51,0,1.17-.74,1.49-1.29,1.82-3.11,3.56-6.27,5.31-9.42,1-1.86,2.06-3.74,3.07-5.59-.36-.23-.47-.36-.58-.37-6.56,0-13.12-.06-19.68,0a1.85,1.85,0,0,0-1.42.7C70.56,36.34,67.82,41.56,64.81,47.23Z"/><path class="cls-1" d="M6.64,30.58h60.3c-.81,1.56-1.52,2.93-2.24,4.3-1.77,3.39-3.62,6.73-5.28,10.17A3.4,3.4,0,0,1,55.8,47.3c-6.11-.13-12.23,0-19,0L51.66,72.69c1.61-3,3-5.59,4.45-8.21C58,60.92,60,57.37,61.8,53.79a2.45,2.45,0,0,1,2.5-1.56c5.9.08,11.81,0,18.3,0C72.27,70.78,62.23,88.76,52,107Z"/><path class="cls-2" d="M122,30.69,78.43,106.87c-.49-.79-.86-1.27-1.12-1.8C74.67,99.7,72,94.35,69.48,88.93a3.62,3.62,0,0,1,0-2.92Q85,58.9,100.76,31.9a3,3,0,0,1,2.11-1.39c6-.11,12-.06,17.95,0A8.58,8.58,0,0,1,122,30.69Z"/><path class="cls-2" d="M64.81,47.23c3-5.67,5.75-10.89,8.56-16.06a1.85,1.85,0,0,1,1.42-.7c6.56,0,13.12,0,19.68,0,.11,0,.22.14.58.37-1,1.85-2,3.73-3.07,5.59-1.75,3.15-3.49,6.31-5.31,9.42-.32.55-1,1.29-1.49,1.29C78.57,47.26,72,47.23,64.81,47.23Z"/><rect class="cls-3" x="134.66" y="7.13" width="5.85" height="128.34"/><path class="cls-3" d="M219.37,33.08l-9.27,31.7A6,6,0,0,1,207.87,68a6.61,6.61,0,0,1-4.11,1.39q-3.51,0-6.09-4.16L186.77,47.4,175.83,65.18c-1.69,2.77-3.7,4.16-6.05,4.16a6.47,6.47,0,0,1-4-1.34,6.15,6.15,0,0,1-2.31-3.22l-9.26-31.7h12.14L171,52l10-16.1a6.13,6.13,0,0,1,5.45-3.17,7.23,7.23,0,0,1,3.49.9,6.81,6.81,0,0,1,2.55,2.27l10,16.1,4.66-18.87Z"/><path class="cls-3" d="M280.49,48.39a17.92,17.92,0,0,0-10.85-3.17H251.46c-1.35,0-2-.48-2-1.44s.68-1.44,2-1.44h25.26l7.13-9.26H251.46a17.54,17.54,0,0,0-10.1,2.77,9.35,9.35,0,0,0,0,15.81,17.54,17.54,0,0,0,10.1,2.77h18.18a9,9,0,0,1,3.12.49c1.19.47,1.78,1.14,1.78,2s-.59,1.54-1.78,2a7.92,7.92,0,0,1-3.12.59H244.08L237,68.79h32.69a17.8,17.8,0,0,0,10.8-3.12A10.07,10.07,0,0,0,285,57.1,10.41,10.41,0,0,0,280.49,48.39Z"/><path class="cls-3" d="M333.58,33.08l-7.13,9.26H308.52A11.48,11.48,0,0,0,301,44.8a7.72,7.72,0,0,0-3,6.26,7.5,7.5,0,0,0,3,6.17,11.83,11.83,0,0,0,7.58,2.35H321.4V56.26H307.53l-7.28-8.81h32.24V68.79h-24q-9.31,0-15.43-5.17a16.33,16.33,0,0,1-6.12-13,15.48,15.48,0,0,1,6-12.67q6-4.86,15.5-4.86Z"/><path class="cls-3" d="M372.76,59.58l-7.18,9.21H334V33.08h11v26.5Z"/><polygon class="cls-3" points="477.08 55.32 495.9 55.32 503 46.16 465.99 46.16 465.99 68.79 497.64 68.79 504.77 59.58 477.08 59.58 477.08 55.32"/><polygon class="cls-3" points="497.81 42.11 504.77 33.08 465.99 33.08 465.99 42.11 497.81 42.11"/><path class="cls-4" d="M193.2,97.29c0,2-.92,3-2.75,3a5.81,5.81,0,0,1-3.77-1.48l-13-10.92v12.25h-6.92V80.75a2.76,2.76,0,0,1,.79-2,3,3,0,0,1,2.24-.81,5.41,5.41,0,0,1,3.49,1.33l13,10.92V77.87h6.92Z"/><path class="cls-4" d="M221.74,77.87l-4.48,5.78h-6.67v16.52h-6.92V83.65h-9.18l4.45-5.78Z"/><polygon class="cls-4" points="242 83.62 246.42 77.87 222.23 77.87 222.23 83.62 242 83.62"/><polygon class="cls-4" points="229.16 91.76 240.89 91.76 245.28 86.09 222.23 86.09 222.23 100.17 241.97 100.17 246.42 94.42 229.16 94.42 229.16 91.76"/><path class="cls-4" d="M280.53,100.17h-10l-6.73-5.6h-9.52v5.6h-6.92V88.79h19.22a7,7,0,0,0,2.9-.53,2.15,2.15,0,0,0,1.45-2q0-2.59-4.35-2.6H247.32l4.51-5.78h14.06a16.05,16.05,0,0,1,8.46,2A7.16,7.16,0,0,1,278,86.28a6.8,6.8,0,0,1-1.47,4.26,9.33,9.33,0,0,1-4.06,2.92Z"/><path class="cls-4" d="M309.57,97.29c0,2-.92,3-2.75,3a5.83,5.83,0,0,1-3.77-1.48L290,87.92v12.25h-6.92V80.75a2.8,2.8,0,0,1,.79-2,3,3,0,0,1,2.24-.81,5.39,5.39,0,0,1,3.49,1.33l13,10.92V77.87h6.92Z"/><path class="cls-4" d="M321.89,100.17l7.49-10.46,3.22,4.67h2.76l-5.77-8-10,13.79H311l14.27-19.82a6.26,6.26,0,0,1,1.89-1.74,5,5,0,0,1,2.56-.8,4.91,4.91,0,0,1,2.57.8,6.3,6.3,0,0,1,1.85,1.74l13.93,19.82Z"/><path class="cls-4" d="M454.64,100.28l7.49-10.46,3.22,4.68h2.76l-5.77-8-10,13.8h-8.56L458,80.45a6.12,6.12,0,0,1,1.89-1.73,5,5,0,0,1,2.56-.8,4.88,4.88,0,0,1,2.56.8,6.31,6.31,0,0,1,1.86,1.73l13.93,19.83Z"/><path class="cls-4" d="M368.05,77.87l-4.48,5.78H356.9v16.52H350V83.65H340.8l4.45-5.78Z"/><path class="cls-4" d="M413.12,88.82a10.21,10.21,0,0,1-3.81,8.12,14.39,14.39,0,0,1-9.63,3.23H393a14.43,14.43,0,0,1-9.65-3.23,10.19,10.19,0,0,1-3.82-8.12,9.65,9.65,0,0,1,3.79-7.92,15,15,0,0,1,9.68-3h6.7a14.93,14.93,0,0,1,9.67,3A9.66,9.66,0,0,1,413.12,88.82Zm-13.44-5.17H393a7.19,7.19,0,0,0-4.73,1.54,4.85,4.85,0,0,0-1.85,3.91A4.69,4.69,0,0,0,388.25,93,7.38,7.38,0,0,0,393,94.42h6.7A7.36,7.36,0,0,0,404.41,93a4.66,4.66,0,0,0,1.85-3.85,4.84,4.84,0,0,0-1.86-3.91A7.22,7.22,0,0,0,399.68,83.65Z"/><path class="cls-4" d="M442.32,97.29c0,2-.92,3-2.75,3a5.81,5.81,0,0,1-3.77-1.48l-13-10.92v12.25h-6.92V80.75a2.8,2.8,0,0,1,.79-2,3,3,0,0,1,2.24-.81,5.39,5.39,0,0,1,3.49,1.33l13,10.92V77.87h6.92Z"/><path class="cls-4" d="M505,94.42l-4.48,5.75H480.84V77.87h6.89V94.42Z"/><polygon class="cls-3" points="222.49 68.79 233.53 68.79 233.53 49.67 222.49 35.14 222.49 68.79"/><polygon class="cls-3" points="233.53 33.08 222.49 33.08 222.49 33.21 233.53 47.74 233.53 33.08"/><polygon class="cls-4" points="163.29 77.87 156.72 77.87 163.29 86.2 163.29 77.87"/><polygon class="cls-4" points="156.4 100.17 163.29 100.17 163.29 88.03 156.4 79.29 156.4 100.17"/><polygon class="cls-4" points="376.94 78.03 370.37 78.03 376.94 86.36 376.94 78.03"/><polygon class="cls-4" points="370.05 100.32 376.94 100.32 376.94 88.18 370.05 79.44 370.05 100.32"/><path class="cls-3" d="M458.15,51.11a8.94,8.94,0,0,0,3.17-6.64,8.42,8.42,0,0,0-1.74-5,14.24,14.24,0,0,0-6.88-4.9A26.25,26.25,0,0,0,443.64,33H410.06a21.75,21.75,0,0,1,5.17,3.88A20.6,20.6,0,0,1,419,42.29h25.71a8.19,8.19,0,0,1,2.57.4c1.09.36,1.64.92,1.64,1.68s-.55,1.34-1.64,1.74a8.19,8.19,0,0,1-2.57.39H420.51a18.9,18.9,0,0,1-.09,9.27h24.31a14.82,14.82,0,0,1,3.26.34c1.52.33,2.28.84,2.28,1.54s-.76,1.2-2.28,1.53a14.81,14.81,0,0,1-3.26.35H419a21.24,21.24,0,0,1-8.82,9.21h33.42a26.82,26.82,0,0,0,9-1.43,14.12,14.12,0,0,0,6.93-4.81,8.12,8.12,0,0,0,1.74-5A8.56,8.56,0,0,0,458.15,51.11Z"/><path class="cls-3" d="M415.68,46.5a19.94,19.94,0,0,0-1.5-4.21,20.6,20.6,0,0,0-3.79-5.38A21.5,21.5,0,0,0,405.23,33a22.93,22.93,0,0,0-10.73-2.74,22.32,22.32,0,0,0-14.34,5.22A19.88,19.88,0,0,0,378.57,65c.42.44.88.84,1.34,1.24a21,21,0,0,0,3.54,2.47,22.68,22.68,0,0,0,10.92,2.84h.15a22.28,22.28,0,0,0,10.87-2.84,21.24,21.24,0,0,0,8.82-9.21,20.63,20.63,0,0,0,1.38-3.76,19.59,19.59,0,0,0,.62-4.48A20.16,20.16,0,0,0,415.68,46.5Zm-4.1-4.21c.24.41.45.82.65,1.24a18.89,18.89,0,0,1,1.07,3,17.68,17.68,0,0,1,.54,3.28h-4.43a27.83,27.83,0,0,0-.34-3.28c-.1-.62-.2-1.24-.34-1.85a24,24,0,0,0-.67-2.36,22.53,22.53,0,0,0-1-2.44l.07,0,2.22-.63A18.79,18.79,0,0,1,411.58,42.29Zm-4.05-4.92c-.55.15-1.07.28-1.54.39a18.36,18.36,0,0,0-2.11-2.87A20.1,20.1,0,0,1,407.53,37.37Zm-7.2,22.16c.15-1.21.27-2.47.35-3.76s.14-2.4.16-3.66h6.24a26.53,26.53,0,0,1-.45,3.66,23.08,23.08,0,0,1-1,3.76,20.57,20.57,0,0,1-.9,2.11L400.14,61C400.21,60.51,400.27,60,400.33,59.53ZM400.13,41l1.09-.12.28,0c1.09-.14,2.18-.29,3.27-.46.31.65.58,1.3.83,2a21.62,21.62,0,0,1,1.11,4.13.19.19,0,0,0,0,.08c.12.79.2,1.61.27,2.4l.09.89h-6.24c0-1.15-.07-2.23-.13-3.29-.09-1.47-.22-2.86-.39-4.21C400.26,41.84,400.2,41.39,400.13,41Zm3.42-2.72-1.16.18-1.5.17-1.17.13a22.46,22.46,0,0,0-1.7-5.39A12.87,12.87,0,0,1,403.55,38.23ZM393.5,33.51a4,4,0,0,1,.38-.48H395a6.94,6.94,0,0,1,.79,1.1,18.06,18.06,0,0,1,1.56,4.72c-.95,0-1.91.06-2.86.06s-1.93,0-2.92-.06A16.58,16.58,0,0,1,393.5,33.51Zm-2.33,7.59h6.63c.06.39.11.79.16,1.19.18,1.32.32,2.71.41,4.21.07,1,.12,2.14.15,3.31h-8.08c0-1.18.09-2.28.15-3.31.1-1.52.23-2.9.41-4.21C391.05,41.89,391.1,41.49,391.17,41.1ZM391,33.32a3.54,3.54,0,0,0-.16.34,23.4,23.4,0,0,0-1.55,5l-3.83-.5A12.68,12.68,0,0,1,391,33.32Zm-6.69,7c.81.13,1.63.24,2.46.35l1.32.19.78.1c-.07.44-.12.88-.18,1.32a68.11,68.11,0,0,0-.52,7.5h-6.24c0-.31,0-.61.06-.92a25.24,25.24,0,0,1,2.19-8.55v0Zm-2-3.62a19.68,19.68,0,0,1,2.7-1.78,19.2,19.2,0,0,0-1.79,2.44c-.08.13-.17.25-.25.39l-1.4-.37-.11,0C381.72,37.13,382,36.93,382.3,36.71Zm-7.16,13c0-.5.09-1,.16-1.46a17.72,17.72,0,0,1,4.33-9.07c.69.22,1.39.42,2.11.62l.11,0,0,.06c-.22.5-.42,1-.61,1.49a26,26,0,0,0-1.65,8.43l-2.1,0h-2.34Zm4.32,12.82a17.78,17.78,0,0,1-4.17-9c-.07-.46-.11-.91-.15-1.38v-.07h4.44a26.4,26.4,0,0,0,2.2,9.84l0,0ZM382.07,65c-.26-.2-.52-.41-.77-.63l1.58-.37.18.26.54.74c.48.67,1,1.34,1.48,2A20.41,20.41,0,0,1,382.07,65Zm2-3.56a20.4,20.4,0,0,1-1.76-5.5c-.16-1-.26-1.93-.35-2.87,0-.33-.07-.66-.1-1h6.15l.58,7.43.11,1.35-.22,0-2.17.25-1.23.14C384.79,61.34,384.45,61.39,384.11,61.46Zm1.15,2.12.13,0,1.92-.25.95-.08,1-.1a22.69,22.69,0,0,0,1.6,5.22l.15.3A14.83,14.83,0,0,1,385.26,63.58Zm12.1-.43a18.13,18.13,0,0,1-1.58,4.71,5.71,5.71,0,0,1-.63.88h-1.41a5.78,5.78,0,0,1-.84-1.46,21.46,21.46,0,0,1-1.31-4.23h5.79S397.37,63.12,397.36,63.15Zm.45-2.39h-6.65l-.06-.4c-.05-.29-.09-.56-.13-.83s-.09-.71-.12-1.06c-.06-.9-.12-1.8-.17-2.7l-.09-1.43c0-.75-.09-1.5-.14-2.27h8.07c0,1.33-.09,2.54-.17,3.7-.09,1.33-.21,2.58-.37,3.76C397.92,59.94,397.87,60.36,397.81,60.76Zm.18,7.86a23.31,23.31,0,0,0,1.74-5.39l3.83.52A14.93,14.93,0,0,1,398,68.62ZM403.8,67c.64-.78,1.24-1.6,1.82-2.39l.3-.4,1.45.4A19.52,19.52,0,0,1,403.8,67Zm7.81-7.51a19.25,19.25,0,0,1-2.34,3.32.48.48,0,0,1-.16,0c-.59-.2-1.19-.36-1.79-.53L407,62.2l.3-.67c.28-.65.52-1.32.74-2a25.16,25.16,0,0,0,.92-3.76,27.92,27.92,0,0,0,.41-3.7h4.43c0,.33,0,.66-.09,1a18.6,18.6,0,0,1-.56,2.71A17.64,17.64,0,0,1,411.61,59.53Z"/></svg>